<svg width="55" height="45" viewBox="0 0 55 45" fill="none" xmlns="http://www.w3.org/2000/svg">
<g clip-path="url(#clip0_139_14338)">
<path d="M27.5001 33.2371C27.3398 33.2379 27.183 33.1907 27.0494 33.1013C26.9158 33.0119 26.8116 32.8845 26.7498 32.7352C26.6881 32.5858 26.6718 32.4213 26.7028 32.2626C26.7339 32.1038 26.811 31.958 26.9243 31.8436C27.0376 31.7292 27.182 31.6513 27.3392 31.62C27.4964 31.5886 27.6592 31.6051 27.8071 31.6675C27.955 31.7298 28.0812 31.8351 28.1697 31.97C28.2582 32.1049 28.305 32.2633 28.3041 32.4251C28.303 32.6401 28.2179 32.846 28.0674 32.998C27.9168 33.1501 27.713 33.236 27.5001 33.2371ZM27.5001 31.9482C27.4346 31.9419 27.3685 31.9495 27.3061 31.9705C27.2437 31.9915 27.1863 32.0254 27.1376 32.0701C27.0889 32.1148 27.05 32.1693 27.0234 32.23C26.9968 32.2908 26.9831 32.3565 26.9831 32.4229C26.9831 32.4894 26.9968 32.5551 27.0234 32.6158C27.05 32.6766 27.0889 32.7311 27.1376 32.7758C27.1863 32.8205 27.2437 32.8544 27.3061 32.8754C27.3685 32.8964 27.4346 32.904 27.5001 32.8977C27.617 32.8864 27.7256 32.8316 27.8047 32.7438C27.8837 32.656 27.9275 32.5416 27.9275 32.4229C27.9275 32.3043 27.8837 32.1899 27.8047 32.1021C27.7256 32.0143 27.617 31.9594 27.5001 31.9482Z" fill="#00527F"/>
<path d="M39.1848 45.0003H15.8115C15.5435 45.014 15.2786 44.9369 15.0589 44.7812C14.8393 44.6256 14.6774 44.4002 14.599 44.141C14.547 43.9031 14.5773 43.6543 14.6849 43.4361C14.7925 43.218 14.9709 43.0437 15.1904 42.9423C16.7858 42.1131 17.8706 40.7942 18.1684 39.3549C18.4128 37.9861 18.4871 36.5919 18.3896 35.2046C18.3807 35.1153 18.3905 35.0251 18.4183 34.9398C18.4461 34.8545 18.4914 34.7761 18.5512 34.7097C18.6109 34.6432 18.6839 34.5902 18.7653 34.5541C18.8466 34.518 18.9346 34.4996 19.0235 34.5H35.9983C36.0872 34.4996 36.1752 34.518 36.2566 34.5541C36.338 34.5902 36.4109 34.6432 36.4707 34.7097C36.5305 34.7761 36.5758 34.8545 36.6036 34.9398C36.6314 35.0251 36.6412 35.1153 36.6322 35.2046C36.5346 36.5918 36.6075 37.9858 36.8492 39.3549C37.1385 40.8071 38.2191 42.1131 39.8272 42.9423C40.0412 43.0442 40.2152 43.2154 40.3216 43.4288C40.428 43.6421 40.4607 43.8853 40.4143 44.1195C40.3393 44.3858 40.1765 44.6181 39.953 44.7783C39.7294 44.9384 39.4584 45.0167 39.1848 45.0003ZM16.3986 43.7114H38.6062C37.8511 43.268 37.1936 42.6734 36.6742 41.9641C36.1548 41.2549 35.7843 40.4459 35.5857 39.5869C35.3537 38.328 35.2609 37.047 35.3091 35.7674H19.6872C19.7333 37.047 19.6405 38.3277 19.4107 39.5869C19.2127 40.4445 18.8434 41.2523 18.3255 41.9608C17.8076 42.6692 17.1519 43.2635 16.3986 43.7071V43.7114Z" fill="#00527F"/>
<path d="M48.5377 29.5848H6.46237C6.29312 29.5848 6.13081 29.5169 6.01113 29.396C5.89145 29.2752 5.82422 29.1113 5.82422 28.9404C5.82422 28.7694 5.89145 28.6055 6.01113 28.4847C6.13081 28.3638 6.29312 28.2959 6.46237 28.2959H48.5377C48.707 28.2959 48.8693 28.3638 48.9889 28.4847C49.1086 28.6055 49.1759 28.7694 49.1759 28.9404C49.1759 29.1113 49.1086 29.2752 48.9889 29.396C48.8693 29.5169 48.707 29.5848 48.5377 29.5848Z" fill="#00527F"/>
<path d="M51.8603 35.7671H3.1397C2.30734 35.766 1.5094 35.4316 0.920839 34.8372C0.332276 34.2428 0.00112556 33.437 0 32.5964V3.17071C0.00112556 2.33013 0.332276 1.52431 0.920839 0.929935C1.5094 0.335558 2.30734 0.00113668 3.1397 0H51.8603C52.6927 0.00113668 53.4906 0.335558 54.0792 0.929935C54.6677 1.52431 54.9989 2.33013 55 3.17071V32.5964C54.9989 33.437 54.6677 34.2428 54.0792 34.8372C53.4906 35.4316 52.6927 35.766 51.8603 35.7671ZM3.1397 1.28891C2.64584 1.29004 2.17253 1.48867 1.82332 1.84133C1.47411 2.19399 1.27742 2.67197 1.2763 3.17071V32.5964C1.27742 33.0952 1.47411 33.5732 1.82332 33.9258C2.17253 34.2785 2.64584 34.4771 3.1397 34.4782H51.8603C52.3542 34.4771 52.8275 34.2785 53.1767 33.9258C53.5259 33.5732 53.7226 33.0952 53.7237 32.5964V3.17071C53.7226 2.67197 53.5259 2.19399 53.1767 1.84133C52.8275 1.48867 52.3542 1.29004 51.8603 1.28891H3.1397Z" fill="#00527F"/>
<path d="M10.0431 6.58203H7.66917C7.00188 6.58203 6.46094 7.12832 6.46094 7.8022V10.1996C6.46094 10.8734 7.00188 11.4197 7.66917 11.4197H10.0431C10.7104 11.4197 11.2513 10.8734 11.2513 10.1996V7.8022C11.2513 7.12832 10.7104 6.58203 10.0431 6.58203Z" fill="#DDDDDD"/>
<path d="M19.3634 6.58203H16.9895C16.3222 6.58203 15.7812 7.12832 15.7812 7.8022V10.1996C15.7812 10.8734 16.3222 11.4197 16.9895 11.4197H19.3634C20.0307 11.4197 20.5716 10.8734 20.5716 10.1996V7.8022C20.5716 7.12832 20.0307 6.58203 19.3634 6.58203Z" fill="#DDDDDD"/>
<path d="M28.6837 6.58203H26.3098C25.6425 6.58203 25.1016 7.12832 25.1016 7.8022V10.1996C25.1016 10.8734 25.6425 11.4197 26.3098 11.4197H28.6837C29.351 11.4197 29.8919 10.8734 29.8919 10.1996V7.8022C29.8919 7.12832 29.351 6.58203 28.6837 6.58203Z" fill="#DDDDDD"/>
<path d="M38.0079 6.58203H35.634C34.9667 6.58203 34.4258 7.12832 34.4258 7.8022V10.1996C34.4258 10.8734 34.9667 11.4197 35.634 11.4197H38.0079C38.6752 11.4197 39.2162 10.8734 39.2162 10.1996V7.8022C39.2162 7.12832 38.6752 6.58203 38.0079 6.58203Z" fill="#DDDDDD"/>
<path d="M47.3321 6.58203H44.9582C44.2909 6.58203 43.75 7.12832 43.75 7.8022V10.1996C43.75 10.8734 44.2909 11.4197 44.9582 11.4197H47.3321C47.9994 11.4197 48.5404 10.8734 48.5404 10.1996V7.8022C48.5404 7.12832 47.9994 6.58203 47.3321 6.58203Z" fill="#DDDDDD"/>
<path d="M10.0431 15.0713H7.66917C7.00188 15.0713 6.46094 15.6176 6.46094 16.2915V18.6888C6.46094 19.3627 7.00188 19.909 7.66917 19.909H10.0431C10.7104 19.909 11.2513 19.3627 11.2513 18.6888V16.2915C11.2513 15.6176 10.7104 15.0713 10.0431 15.0713Z" fill="#DDDDDD"/>
<path d="M19.3634 15.0713H16.9895C16.3222 15.0713 15.7812 15.6176 15.7812 16.2915V18.6888C15.7812 19.3627 16.3222 19.909 16.9895 19.909H19.3634C20.0307 19.909 20.5716 19.3627 20.5716 18.6888V16.2915C20.5716 15.6176 20.0307 15.0713 19.3634 15.0713Z" fill="#DDDDDD"/>
<path d="M28.6837 15.0713H26.3098C25.6425 15.0713 25.1016 15.6176 25.1016 16.2915V18.6888C25.1016 19.3627 25.6425 19.909 26.3098 19.909H28.6837C29.351 19.909 29.8919 19.3627 29.8919 18.6888V16.2915C29.8919 15.6176 29.351 15.0713 28.6837 15.0713Z" fill="#DDDDDD"/>
<path d="M38.0079 15.0713H35.634C34.9667 15.0713 34.4258 15.6176 34.4258 16.2915V18.6888C34.4258 19.3627 34.9667 19.909 35.634 19.909H38.0079C38.6752 19.909 39.2162 19.3627 39.2162 18.6888V16.2915C39.2162 15.6176 38.6752 15.0713 38.0079 15.0713Z" fill="#DDDDDD"/>
<path d="M47.3321 15.0713H44.9582C44.2909 15.0713 43.75 15.6176 43.75 16.2915V18.6888C43.75 19.3627 44.2909 19.909 44.9582 19.909H47.3321C47.9994 19.909 48.5404 19.3627 48.5404 18.6888V16.2915C48.5404 15.6176 47.9994 15.0713 47.3321 15.0713Z" fill="#DDDDDD"/>
<path d="M22.7977 25.4302C22.6276 25.4344 22.4603 25.3871 22.3171 25.2944C22.174 25.2016 22.0617 25.0677 21.9946 24.9098C21.9276 24.7519 21.909 24.5774 21.9411 24.4088C21.9733 24.2401 22.0547 24.085 22.175 23.9636C22.2953 23.8421 22.4488 23.7599 22.6158 23.7274C22.7828 23.6949 22.9556 23.7138 23.1119 23.7814C23.2683 23.8491 23.4009 23.9626 23.4928 24.1071C23.5846 24.2517 23.6315 24.4207 23.6273 24.5924C23.6219 24.8129 23.5327 25.0228 23.3783 25.1788C23.2239 25.3347 23.016 25.4247 22.7977 25.4302ZM22.7977 24.1413C22.7085 24.137 22.6202 24.1598 22.544 24.2067C22.4678 24.2535 22.4072 24.3224 22.3701 24.4044C22.333 24.4863 22.3211 24.5776 22.3358 24.6665C22.3506 24.7554 22.3914 24.8378 22.4529 24.903C22.5145 24.9683 22.5939 25.0134 22.6811 25.0326C22.7683 25.0519 22.8592 25.0443 22.9421 25.0108C23.0249 24.9774 23.096 24.9197 23.1461 24.8451C23.1962 24.7705 23.223 24.6825 23.2231 24.5924C23.226 24.5342 23.2171 24.476 23.197 24.4214C23.1769 24.3668 23.1461 24.3168 23.1063 24.2746C23.0665 24.2324 23.0186 24.1988 22.9655 24.1759C22.9125 24.153 22.8554 24.1412 22.7977 24.1413Z" fill="#00527F"/>
<path d="M27.499 25.4295C27.3299 25.4294 27.1645 25.3784 27.0242 25.283C26.8838 25.1876 26.7748 25.0521 26.7111 24.8939C26.6474 24.7356 26.6318 24.5618 26.6664 24.3945C26.701 24.2273 26.7842 24.0742 26.9053 23.955C27.0264 23.8357 27.18 23.7556 27.3465 23.7249C27.5129 23.6942 27.6846 23.7143 27.8397 23.7827C27.9947 23.851 28.1261 23.9645 28.217 24.1086C28.3079 24.2527 28.3541 24.4209 28.3499 24.5917C28.3499 24.7035 28.3278 24.8143 28.2848 24.9173C28.2418 25.0204 28.1788 25.1137 28.0995 25.1918C28.0201 25.2699 27.9262 25.3312 27.823 25.372C27.7199 25.4128 27.6098 25.4323 27.499 25.4295ZM27.499 24.1406C27.4158 24.1407 27.3345 24.1654 27.265 24.2118C27.1956 24.2581 27.1412 24.324 27.1084 24.4012C27.0757 24.4785 27.0661 24.5637 27.0809 24.6464C27.0957 24.7291 27.1341 24.8057 27.1915 24.8665C27.2489 24.9274 27.3227 24.9699 27.4038 24.9888C27.4848 25.0077 27.5696 25.0022 27.6476 24.973C27.7257 24.9437 27.7935 24.892 27.8427 24.8242C27.8919 24.7565 27.9203 24.6756 27.9245 24.5917C27.9274 24.5335 27.9185 24.4753 27.8984 24.4207C27.8783 24.366 27.8474 24.3161 27.8076 24.2739C27.7678 24.2317 27.72 24.1981 27.6669 24.1752C27.6139 24.1523 27.5567 24.1405 27.499 24.1406Z" fill="#00527F"/>
<path d="M32.1983 25.4295C32.0291 25.4294 31.8638 25.3784 31.7234 25.283C31.5831 25.1876 31.4741 25.0521 31.4103 24.8939C31.3466 24.7356 31.331 24.5618 31.3656 24.3945C31.4002 24.2273 31.4834 24.0742 31.6045 23.955C31.7257 23.8357 31.8793 23.7556 32.0457 23.7249C32.2121 23.6942 32.3838 23.7143 32.5389 23.7827C32.6939 23.851 32.8253 23.9645 32.9162 24.1086C33.0071 24.2527 33.0534 24.4209 33.0491 24.5917C33.0492 24.7035 33.027 24.8143 32.984 24.9173C32.941 25.0204 32.878 25.1137 32.7987 25.1918C32.7194 25.2699 32.6254 25.3312 32.5223 25.372C32.4191 25.4128 32.309 25.4323 32.1983 25.4295ZM32.1983 24.1406C32.115 24.1407 32.0337 24.1654 31.9643 24.2118C31.8948 24.2581 31.8404 24.324 31.8076 24.4012C31.7749 24.4785 31.7653 24.5637 31.7801 24.6464C31.7949 24.7291 31.8333 24.8057 31.8907 24.8665C31.9481 24.9274 32.0219 24.9699 32.103 24.9888C32.1841 25.0077 32.2689 25.0022 32.3469 24.973C32.4249 24.9437 32.4927 24.892 32.5419 24.8242C32.5911 24.7565 32.6195 24.6756 32.6237 24.5917C32.6266 24.5335 32.6177 24.4753 32.5976 24.4207C32.5775 24.366 32.5467 24.3161 32.5069 24.2739C32.4671 24.2317 32.4192 24.1981 32.3661 24.1752C32.3131 24.1523 32.256 24.1405 32.1983 24.1406Z" fill="#00527F"/>
</g>
<defs>
<clipPath id="clip0_139_14338">
<rect width="55" height="45" fill="white"/>
</clipPath>
</defs>
</svg>
