<svg width="37" height="45" viewBox="0 0 37 45" fill="none" xmlns="http://www.w3.org/2000/svg">
<g clip-path="url(#clip0_139_14378)">
<path d="M18.4747 30.5249C18.3475 30.5273 18.2241 30.4822 18.1291 30.3986L15.1017 27.808C14.9981 27.7174 14.9352 27.59 14.9268 27.4536C14.9183 27.3173 14.9651 27.1832 15.0567 27.0809C15.1484 26.9786 15.2775 26.9165 15.4155 26.9082C15.5536 26.8999 15.6893 26.946 15.7929 27.0366L18.4747 29.3541L21.16 27.0536C21.2113 27.0088 21.2711 26.9744 21.3358 26.9524C21.4006 26.9303 21.4691 26.9211 21.5374 26.9253C21.6058 26.9294 21.6726 26.9467 21.7342 26.9764C21.7958 27.006 21.8508 27.0474 21.8962 27.098C21.9416 27.1487 21.9764 27.2076 21.9987 27.2716C22.021 27.3355 22.0303 27.4032 22.0262 27.4707C22.022 27.5382 22.0044 27.6043 21.9744 27.665C21.9444 27.7258 21.9025 27.7802 21.8513 27.825L18.8238 30.4157C18.7254 30.494 18.6008 30.5329 18.4747 30.5249Z" fill="#DDDDDD"/>
<path d="M29.0025 40.2929C28.865 40.3064 28.7277 40.2655 28.6208 40.1791C28.5138 40.0927 28.446 39.9679 28.4323 39.8321C28.4185 39.6963 28.46 39.5607 28.5475 39.455C28.635 39.3494 28.7614 39.2825 28.8989 39.2689L35.7798 37.8865L34.4872 31.4697C34.1979 30.0586 33.4284 28.7879 32.3065 27.8687C31.7051 27.3462 30.9877 26.9708 30.2121 26.7731L24.2125 25.0664C24.032 25.014 23.8607 24.9346 23.7045 24.8309C23.4869 24.6865 23.3036 24.4974 23.167 24.2765C23.0304 24.0555 22.9437 23.8081 22.9131 23.551L22.6055 20.9296L22.837 20.7555C24.4808 19.4386 25.6445 17.6278 26.1513 15.5982L26.2446 15.2568L26.5902 15.2227C27.3782 15.1544 28.0003 14.1748 28.0003 12.9939C28.0003 11.8948 27.4715 10.9698 26.7492 10.7889C26.6159 10.7559 26.5012 10.6719 26.4306 10.5554C26.36 10.4389 26.3391 10.2994 26.3725 10.1677C26.406 10.036 26.491 9.9228 26.609 9.85303C26.727 9.78326 26.8681 9.76262 27.0015 9.79566C28.2007 10.0926 29.0371 11.4067 29.0371 12.9939C29.0371 14.581 28.2042 15.861 27.0499 16.1784C26.4749 18.2055 25.3033 20.0183 23.6837 21.387L23.9257 23.4349C23.9404 23.5455 23.9789 23.6517 24.0385 23.7465C24.0981 23.8412 24.1774 23.9224 24.2713 23.9845C24.3397 24.0288 24.4142 24.0632 24.4924 24.0868L30.4575 25.7935C31.3805 26.0253 32.2353 26.4685 32.9528 27.0871C34.2612 28.1551 35.1581 29.635 35.4929 31.2785L36.9894 38.6784L29.1097 40.2758L29.0025 40.2929Z" fill="#00527F"/>
<path d="M7.94881 40.2762C7.91318 40.2796 7.87731 40.2796 7.84168 40.2762L0 38.6686L1.49645 31.2687C1.83022 29.6247 2.72728 28.1445 4.03662 27.0773C4.76978 26.4479 5.64402 25.9998 6.58715 25.77L12.4969 24.0634C12.5752 24.0398 12.6497 24.0053 12.7181 23.961C12.8119 23.8989 12.8913 23.8178 12.9509 23.723C13.0105 23.6282 13.0489 23.522 13.0637 23.4114L13.3022 21.3635C11.6843 19.9934 10.5131 18.1811 9.93602 16.1549C8.77826 15.8409 7.94881 14.5473 7.94881 12.9704C7.94881 11.3935 8.75752 10.1169 9.91528 9.79267C9.98201 9.76949 10.0528 9.76005 10.1234 9.76492C10.1939 9.76978 10.2627 9.78886 10.3256 9.82097C10.3884 9.85308 10.4439 9.89754 10.4886 9.95163C10.5334 10.0057 10.5665 10.0683 10.5858 10.1355C10.6052 10.2026 10.6105 10.273 10.6013 10.3423C10.592 10.4115 10.5686 10.4782 10.5323 10.5382C10.4961 10.5982 10.4477 10.6502 10.3904 10.691C10.333 10.7318 10.2678 10.7607 10.1987 10.7757C9.4971 10.9805 8.98562 11.9055 8.98562 12.9704C8.98562 14.1514 9.60078 15.131 10.3888 15.1992L10.7516 15.2334L10.8449 15.5747C11.352 17.6105 12.5197 19.4266 14.1696 20.7457L14.3977 20.9198L14.0867 23.5514C14.0565 23.8091 13.9701 24.0572 13.8335 24.2788C13.6968 24.5003 13.5132 24.69 13.2953 24.8348C13.1391 24.9384 12.9677 25.0178 12.7872 25.0703L6.84289 26.7769C6.04855 26.9733 5.31292 27.3536 4.69671 27.8862C3.57452 28.7985 2.80347 30.0636 2.51252 31.4701L1.21997 37.887L8.05249 39.2864C8.18998 39.3 8.31638 39.3669 8.40388 39.4725C8.49137 39.5782 8.5328 39.7138 8.51905 39.8496C8.50531 39.9853 8.4375 40.1102 8.33056 40.1966C8.22362 40.283 8.0863 40.3239 7.94881 40.3103V40.2762Z" fill="#00527F"/>
<path d="M10.056 10.8029C9.92225 10.8021 9.79392 10.7507 9.69746 10.6593C9.60099 10.5678 9.54376 10.4433 9.53756 10.3114C9.53756 10.1134 9.35094 5.39973 12.2644 2.38926C13.7988 0.802109 15.8966 0 18.4852 0C21.0737 0 23.1853 0.805522 24.706 2.38926C27.5986 5.39631 27.3982 10.1032 27.3878 10.3011C27.381 10.4369 27.3197 10.5644 27.2177 10.6557C27.1156 10.7469 26.981 10.7943 26.8435 10.7875C26.706 10.7807 26.5769 10.7203 26.4845 10.6194C26.3922 10.5186 26.3442 10.3857 26.351 10.2499C26.351 10.2056 26.5377 5.77518 23.9318 3.08214C22.6462 1.70661 20.8041 1.02397 18.499 1.02397C16.1938 1.02397 14.3518 1.70661 13.0143 3.0958C10.4016 5.80249 10.5744 10.2397 10.5744 10.267C10.5776 10.3342 10.5674 10.4015 10.5443 10.4648C10.5212 10.5282 10.4857 10.5864 10.4398 10.6362C10.3939 10.6859 10.3385 10.7263 10.2768 10.7549C10.2151 10.7835 10.1483 10.7998 10.0802 10.8029H10.056Z" fill="#00527F"/>
<path d="M22.4656 7.46752C22.0302 7.46724 21.5952 7.44217 21.1627 7.39243C19.5833 7.22177 18.2666 6.59032 16.9913 5.97594C16.6457 5.81552 16.3001 5.63462 15.9545 5.49468C14.6274 4.89736 13.5076 4.75401 12.6264 5.07144C11.9922 5.2886 11.4649 5.73497 11.1506 6.32068C11.1228 6.38435 11.0822 6.44178 11.0313 6.48948C10.9803 6.53717 10.9201 6.57415 10.8542 6.59817C10.7883 6.62218 10.7182 6.63274 10.6481 6.62918C10.578 6.62563 10.5093 6.60805 10.4463 6.5775C10.3833 6.54695 10.3272 6.50408 10.2814 6.45148C10.2357 6.39888 10.2012 6.33765 10.1801 6.2715C10.1591 6.20536 10.1518 6.13567 10.1588 6.06668C10.1659 5.99768 10.187 5.93082 10.221 5.87013C10.6491 5.03753 11.3875 4.40131 12.2808 4.09525C13.4247 3.68225 14.8071 3.83585 16.3899 4.54921C16.7355 4.70964 17.0812 4.89054 17.4268 5.04413C18.6778 5.64486 19.846 6.21146 21.2595 6.36164C22.8895 6.59484 24.5528 6.3292 26.0253 5.60049C26.1477 5.53848 26.29 5.52702 26.4209 5.56862C26.5518 5.61023 26.6606 5.7015 26.7234 5.82235C26.7862 5.9432 26.7978 6.08373 26.7557 6.21303C26.7135 6.34233 26.6211 6.44981 26.4988 6.51182C25.2525 7.14805 23.8685 7.47601 22.4656 7.46752Z" fill="#00527F"/>
<path d="M18.4982 27.7495C18.3708 27.7496 18.2478 27.7035 18.1526 27.6197L13.2866 23.3157C13.2358 23.2708 13.1944 23.2166 13.1648 23.1559C13.1352 23.0953 13.118 23.0295 13.1141 22.9623C13.1103 22.8952 13.1198 22.8279 13.1423 22.7643C13.1648 22.7008 13.1997 22.6423 13.2451 22.5921C13.2905 22.5419 13.3455 22.501 13.4068 22.4718C13.4682 22.4425 13.5348 22.4255 13.6029 22.4217C13.6709 22.4179 13.739 22.4274 13.8034 22.4496C13.8677 22.4718 13.927 22.5063 13.9778 22.5511L18.4982 26.548L23.0187 22.5511C23.1214 22.4606 23.2562 22.414 23.3936 22.4217C23.531 22.4294 23.6597 22.4907 23.7514 22.5921C23.843 22.6934 23.8902 22.8266 23.8824 22.9623C23.8746 23.098 23.8126 23.2251 23.7099 23.3157L18.8438 27.6197C18.7487 27.7035 18.6257 27.7496 18.4982 27.7495Z" fill="#00527F"/>
<path d="M18.4754 44.9999C18.4444 45.0033 18.4131 45.0033 18.3821 44.9999L7.85161 43.0749C7.73294 43.0533 7.62572 42.9912 7.54866 42.8995C7.4716 42.8078 7.4296 42.6923 7.42997 42.5731V30.6063C7.42744 30.5323 7.44164 30.4587 7.47153 30.3908C7.50142 30.3229 7.54626 30.2625 7.60278 30.2138C7.66067 30.165 7.72888 30.1295 7.80243 30.11C7.87597 30.0905 7.95299 30.0875 8.02786 30.1012L18.5687 32.016C18.6902 32.036 18.8008 32.0976 18.881 32.1899C18.9612 32.2822 19.006 32.3995 19.0076 32.5212V44.4879C19.0075 44.5629 18.9907 44.6368 18.9584 44.7047C18.9262 44.7725 18.8793 44.8325 18.821 44.8805C18.7246 44.961 18.6015 45.0036 18.4754 44.9999ZM8.45295 42.1465L17.9708 43.8735V32.9512L8.46678 31.2207L8.45295 42.1465Z" fill="#00527F"/>
<path d="M18.4775 44.9999C18.3514 45.0036 18.2283 44.961 18.1319 44.8804C18.0736 44.8325 18.0267 44.7725 17.9945 44.7047C17.9622 44.6368 17.9454 44.5628 17.9453 44.4879V32.5212C17.9463 32.4014 17.9891 32.2857 18.0666 32.1937C18.1441 32.1016 18.2514 32.0388 18.3704 32.016L28.8974 30.1012C28.9723 30.0875 29.0493 30.0905 29.1228 30.11C29.1964 30.1295 29.2646 30.165 29.3225 30.2138C29.3815 30.2611 29.429 30.321 29.4613 30.389C29.4936 30.4569 29.51 30.5312 29.5091 30.6063V42.5731C29.5093 42.6928 29.4668 42.8087 29.3891 42.9004C29.3113 42.9922 29.2033 43.054 29.084 43.0748L18.557 44.9897C18.5309 44.9955 18.5043 44.999 18.4775 44.9999ZM19.0098 32.9478V43.8701L28.5 42.143V31.2207L19.0098 32.9478Z" fill="#00527F"/>
<path d="M21.1493 36.5723C21.0118 36.5836 20.8754 36.5405 20.7701 36.4525C20.6648 36.3645 20.5992 36.2387 20.5877 36.1029C20.5763 35.9671 20.6199 35.8324 20.709 35.7284C20.7981 35.6244 20.9254 35.5596 21.0629 35.5483L26.4578 34.6438C26.5258 34.6326 26.5955 34.6347 26.6627 34.6501C26.73 34.6655 26.7935 34.6938 26.8496 34.7334C26.9058 34.773 26.9535 34.8232 26.99 34.881C27.0266 34.9388 27.0512 35.0032 27.0626 35.0704C27.0739 35.1377 27.0717 35.2065 27.0562 35.2729C27.0406 35.3393 27.0119 35.402 26.9718 35.4575C26.9317 35.5129 26.8809 35.56 26.8224 35.5961C26.7638 35.6322 26.6986 35.6565 26.6306 35.6677L21.2357 36.5757L21.1493 36.5723Z" fill="#00527F"/>
<path d="M21.1493 38.9111C21.0118 38.9224 20.8754 38.8793 20.7701 38.7913C20.6648 38.7033 20.5992 38.5776 20.5877 38.4418C20.5763 38.306 20.6199 38.1713 20.709 38.0673C20.7981 37.9633 20.9254 37.8985 21.0629 37.8872L26.4578 36.9827C26.5953 36.96 26.7362 36.9923 26.8496 37.0723C26.9631 37.1523 27.0396 37.2735 27.0626 37.4093C27.0855 37.5451 27.0528 37.6843 26.9718 37.7963C26.8908 37.9083 26.7681 37.984 26.6306 38.0066L21.2357 38.9111C21.207 38.9145 21.178 38.9145 21.1493 38.9111Z" fill="#00527F"/>
</g>
<defs>
<clipPath id="clip0_139_14378">
<rect width="37" height="45" fill="white"/>
</clipPath>
</defs>
</svg>
