<svg width="263" height="71" viewBox="0 0 263 71" fill="none" xmlns="http://www.w3.org/2000/svg">
<g clip-path="url(#clip0_330_171)">
<path d="M49.9087 53.2655C49.7919 53.2574 49.6747 53.2574 49.5579 53.2655H48.8564C48.7396 53.2574 48.6224 53.2574 48.5056 53.2655C48.4433 53.0631 48.3585 52.8214 48.251 52.5347C48.1434 52.248 48.0303 51.9726 47.9002 51.641C47.77 51.3093 47.6455 51.0114 47.5098 50.691L47.1363 49.7748H46.2763H44.5789H43.7698C43.4869 50.4605 43.204 51.1126 43.0003 51.7309C42.7967 52.3492 42.5986 52.8551 42.4798 53.2655C42.1542 53.2355 41.8266 53.2355 41.501 53.2655C42.2139 51.7309 42.9155 50.202 43.5944 48.6843C44.2734 47.1666 44.9637 45.6208 45.6483 44.0469H45.9029C46.1122 44.5584 46.3442 45.1093 46.5932 45.6995C46.8421 46.2897 47.0911 46.8911 47.3457 47.4982L48.1152 49.3026C48.3754 49.8984 48.6131 50.4549 48.8394 50.9889C49.0657 51.5229 49.2694 51.967 49.4504 52.3661C49.6315 52.7652 49.7956 53.0575 49.9087 53.2655ZM44.0358 49.1733C44.2677 49.1733 44.5054 49.1733 44.7543 49.1733C45.0033 49.1733 45.2409 49.1733 45.4672 49.1733H46.1858H46.9326L45.4616 45.8007L44.0358 49.1733Z" fill="white"/>
<path d="M58.3507 47.6837C58.9731 48.8567 59.6237 50.0633 60.3027 51.3037C60.3932 51.1407 60.5233 50.899 60.6874 50.5842C60.8515 50.2694 61.0495 49.9153 61.2532 49.5106C61.4569 49.1059 61.7059 48.673 61.9605 48.2009L62.73 46.7731C62.9902 46.2897 63.2505 45.8175 63.5051 45.351L64.218 44.0469H64.3934C64.4877 44.89 64.5782 45.7051 64.665 46.4921C64.7499 47.2734 64.8347 48.0491 64.9252 48.8079C65.0158 49.5668 65.1006 50.32 65.1912 51.0564C65.2817 51.7927 65.3722 52.5347 65.4797 53.2598C65.3762 53.2517 65.2721 53.2517 65.1685 53.2598H64.5462C64.4426 53.2517 64.3385 53.2517 64.235 53.2598C64.1388 52.0963 64.0369 50.9608 63.9408 49.8872C63.8446 48.8136 63.7258 47.6669 63.5843 46.5145C62.977 47.6388 62.3792 48.7386 61.7907 49.8141C61.2249 50.9102 60.6591 52.0626 60.0933 53.2486H59.9745C59.4427 52.1244 58.8882 51.0152 58.3111 49.9209C57.7339 48.8267 57.1531 47.6912 56.5684 46.5145H56.5401L56.3364 48.2852C56.2629 48.926 56.195 49.5499 56.1327 50.1739C56.0705 50.7978 56.0139 51.3768 55.9743 51.922C55.9347 52.4673 55.9064 52.9226 55.9064 53.2711C55.7519 53.2621 55.597 53.2621 55.4425 53.2711C55.288 53.262 55.133 53.262 54.9785 53.2711L55.335 51.0227C55.4594 50.2301 55.5783 49.4375 55.6914 48.6337C55.8046 47.8299 55.9121 47.0485 56.0139 46.2728C56.1158 45.4971 56.195 44.7551 56.2629 44.0525H56.4892C57.1116 45.2948 57.7283 46.5033 58.3507 47.6837Z" fill="white"/>
<path d="M67.6469 47.7904C67.9284 47.4754 68.2786 47.2285 68.6709 47.0687C69.0632 46.9089 69.4871 46.8405 69.9101 46.8686C70.3246 46.8585 70.7367 46.9331 71.121 47.0878C71.4443 47.2128 71.7374 47.4044 71.981 47.6499C72.2092 47.8939 72.3828 48.1832 72.4902 48.4987C72.6004 48.8344 72.6558 49.1855 72.6543 49.5386C72.6543 49.6285 72.6543 49.7129 72.6543 49.7972C72.6543 49.8815 72.6543 49.9658 72.6543 50.0501H71.2398C70.7702 50.0501 70.2949 50.0501 69.8196 50.0501C69.5254 50.0501 69.2538 50.0501 68.9483 50.0501H68.0826C68.0757 50.1155 68.0757 50.1815 68.0826 50.2469V50.4211C68.08 50.7477 68.1316 51.0724 68.2354 51.3823C68.3285 51.6661 68.4786 51.928 68.6767 52.1524C68.8767 52.3719 69.1217 52.5463 69.3953 52.6639C69.7036 52.7977 70.0377 52.863 70.3741 52.855C70.5652 52.857 70.7556 52.8324 70.9399 52.782C71.1352 52.7373 71.325 52.6713 71.5057 52.5852C71.6804 52.5033 71.8471 52.4055 72.0036 52.2929C72.1497 52.1809 72.286 52.0568 72.411 51.9219L72.4732 51.9613L72.394 52.6077C72.0956 52.8424 71.7638 53.0318 71.4095 53.1698C71.0178 53.3195 70.6015 53.3958 70.1817 53.3947C69.7363 53.4002 69.2936 53.326 68.8747 53.1754C68.4948 53.0385 68.1478 52.824 67.8563 52.5459C67.569 52.2663 67.3419 51.9316 67.1887 51.5622C67.0326 51.1724 66.9538 50.7563 66.9567 50.3368C66.8754 49.4335 67.1201 48.531 67.6469 47.7904ZM69.1011 47.515C68.8738 47.6595 68.6808 47.8513 68.5353 48.0771C68.3889 48.3053 68.2764 48.5533 68.2014 48.8135C68.1317 49.0615 68.0863 49.3156 68.0656 49.5723H68.92H69.7857H70.674H71.551C71.549 49.3219 71.5282 49.072 71.4887 48.8247C71.4509 48.5661 71.3706 48.3155 71.2511 48.0827C71.1344 47.8574 70.9633 47.6643 70.7532 47.5206C70.5072 47.3594 70.2157 47.2806 69.9215 47.2958C69.631 47.2894 69.3452 47.3697 69.1011 47.5262V47.515Z" fill="white"/>
<path d="M74.3124 48.2289C74.3124 47.7961 74.2728 47.3857 74.2275 47.0091C74.4233 47.0484 74.622 47.0709 74.8216 47.0766C74.8988 47.0845 74.9765 47.0845 75.0536 47.0766L75.3535 47.0316C75.3535 47.3857 75.3139 47.7342 75.3139 48.0884H75.3422C75.525 47.7268 75.8067 47.4238 76.155 47.214C76.5032 47.0043 76.9039 46.8962 77.3111 46.9023C77.7457 46.9025 78.1707 47.0296 78.5333 47.2677C78.7015 47.3824 78.8504 47.5228 78.9746 47.6837C79.095 47.8385 79.1817 48.0165 79.2292 48.2064C79.428 47.7994 79.7428 47.4593 80.1345 47.2283C80.5185 46.9993 80.9597 46.8824 81.4075 46.8911C81.6817 46.8888 81.9546 46.9287 82.2166 47.0091C82.4557 47.0831 82.6757 47.2078 82.8616 47.3745C83.0515 47.5545 83.1967 47.7758 83.286 48.0209C83.3947 48.3257 83.4465 48.6476 83.4387 48.9709C83.4387 49.1227 83.4387 49.2857 83.4387 49.4599C83.4387 49.6342 83.4387 49.8365 83.4104 50.0726C83.3822 50.3087 83.4104 50.5673 83.4104 50.8596C83.4104 51.1519 83.4104 51.4948 83.4104 51.8826C83.4104 52.1187 83.4104 52.3492 83.4104 52.5684C83.4104 52.7876 83.4104 53.0237 83.4444 53.2766C83.3484 53.2683 83.2518 53.2683 83.1558 53.2766H82.59C82.4921 53.2685 82.3937 53.2685 82.2958 53.2766C82.2958 53.0574 82.3524 52.6133 82.3863 51.9501C82.4203 51.2868 82.4316 50.3481 82.4316 49.1395C82.434 48.9311 82.4092 48.7233 82.3581 48.5212C82.3132 48.3414 82.2345 48.1716 82.1261 48.0209C82.0127 47.8752 81.8651 47.7594 81.6961 47.6837C81.4875 47.5938 81.2613 47.5516 81.0341 47.56C80.7517 47.5516 80.4716 47.6135 80.2193 47.7399C80.0164 47.8476 79.839 47.9971 79.6988 48.1783C79.6336 48.2675 79.5786 48.3637 79.5347 48.465C79.4844 48.6085 79.4521 48.7577 79.4385 48.9091C79.4385 49.1058 79.4046 49.3812 79.3933 49.7354C79.382 50.0895 79.3933 50.5841 79.3933 51.2081C79.3933 51.5847 79.3933 51.9276 79.3933 52.2424C79.3933 52.5571 79.3933 52.8944 79.4442 53.2598C79.2405 53.2598 79.0481 53.2598 78.8784 53.2598C78.7087 53.2598 78.4993 53.2598 78.3126 53.2598C78.3522 52.7764 78.3805 52.2873 78.3918 51.7871C78.4031 51.2868 78.3918 50.7921 78.3918 50.3087C78.3918 49.8253 78.3918 49.578 78.3918 49.3419C78.3926 49.154 78.3812 48.9662 78.3579 48.7798C78.3452 48.6656 78.3224 48.5528 78.29 48.4425C78.253 48.3424 78.2095 48.2448 78.1598 48.1502C78.0483 47.9716 77.8925 47.8245 77.7072 47.723C77.5134 47.6096 77.2928 47.5495 77.0678 47.5488C76.8236 47.5292 76.5784 47.5704 76.3542 47.6685C76.1299 47.7667 75.9338 47.9187 75.7835 48.1109C75.4853 48.5885 75.343 49.1461 75.3761 49.7073V50.8315C75.3761 51.2249 75.3761 51.6409 75.3761 52.0794C75.3844 52.4721 75.4127 52.8642 75.461 53.2542C75.2573 53.2542 75.0593 53.2542 74.8612 53.2542C74.6632 53.2542 74.4708 53.2542 74.2671 53.2542C74.3154 52.8642 74.3437 52.4721 74.352 52.0794C74.352 51.6409 74.352 51.2249 74.352 50.8315V49.4768C74.335 49.0777 74.3294 48.6617 74.3124 48.2289Z" fill="white"/>
<path d="M91.1895 51.3712C91.0484 51.769 90.8334 52.137 90.5558 52.456C90.2929 52.7558 89.9663 52.9939 89.5996 53.153C89.2256 53.3183 88.8206 53.4026 88.4114 53.4004C88.0176 53.4045 87.6288 53.3118 87.2798 53.1306C86.9726 52.978 86.7067 52.7544 86.5046 52.4785C86.1821 52.7315 85.8879 52.9844 85.6163 53.243H85.373C85.373 53.0294 85.407 52.7764 85.424 52.4785C85.4409 52.1806 85.424 51.8602 85.424 51.5229C85.424 51.1857 85.424 50.8372 85.424 50.4887C85.424 50.1401 85.424 49.8141 85.424 49.5106V47.1272C85.424 46.8293 85.424 46.5033 85.424 46.1548C85.424 45.8063 85.424 45.4578 85.424 45.1149C85.424 44.772 85.424 44.446 85.424 44.1312C85.424 43.8164 85.3957 43.5691 85.373 43.333C85.5706 43.3726 85.7713 43.3951 85.9728 43.4005H86.2783L86.6235 43.3499C86.5866 43.6277 86.564 43.9073 86.5556 44.1874C86.5556 44.5696 86.5273 44.9968 86.516 45.469C86.5046 45.9412 86.516 46.419 86.516 46.9136C86.516 47.4083 86.516 47.8636 86.516 48.2683C86.7557 47.8521 87.0887 47.4963 87.4891 47.2284C87.8708 47.0047 88.3079 46.8918 88.7509 46.9024C89.1633 46.8926 89.5722 46.9792 89.9447 47.1553C90.268 47.3199 90.5517 47.5519 90.7764 47.8355C91.0053 48.128 91.1744 48.4622 91.2743 48.8192C91.387 49.2006 91.4423 49.5965 91.4384 49.994C91.4381 50.4641 91.3538 50.9303 91.1895 51.3712ZM90.1031 48.8585C90.0163 48.5778 89.8824 48.3136 89.7071 48.0772C89.5548 47.8783 89.362 47.7136 89.1413 47.5938C88.9345 47.4886 88.7059 47.4328 88.4736 47.4308C88.2022 47.43 87.9332 47.4816 87.6815 47.5826C87.4233 47.6909 87.1974 47.8631 87.0252 48.0828C86.8227 48.3567 86.673 48.6654 86.5839 48.9934C86.4629 49.4423 86.4076 49.9061 86.4198 50.3706C86.4198 52.1356 87.0648 53.0181 88.3548 53.0181C88.6218 53.0199 88.8835 52.9436 89.1073 52.7989C89.3526 52.6374 89.5592 52.4244 89.7127 52.175C89.8963 51.8713 90.0318 51.5415 90.1144 51.1969C90.2184 50.7854 90.2679 50.3621 90.2615 49.9378C90.2654 49.5721 90.212 49.2079 90.1031 48.8585Z" fill="white"/>
<path d="M93.4868 47.7904C93.7682 47.4754 94.1185 47.2285 94.5108 47.0687C94.9031 46.9089 95.327 46.8405 95.75 46.8686C96.1663 46.8585 96.5802 46.9331 96.9665 47.0878C97.2874 47.2143 97.5784 47.4057 97.8208 47.6499C98.0511 47.8924 98.2249 48.1821 98.33 48.4987C98.4431 48.8337 98.4986 49.1853 98.4941 49.5386C98.4941 49.6285 98.4941 49.7129 98.4941 49.7972C98.4941 49.8815 98.4941 49.9658 98.4941 50.0501H97.074C96.6044 50.0501 96.1347 50.0501 95.6538 50.0501C95.3652 50.0501 95.088 50.0501 94.7881 50.0501H93.9168C93.9128 50.1156 93.9128 50.1813 93.9168 50.2468V50.4211C93.9141 50.7477 93.9658 51.0724 94.0696 51.3823C94.1627 51.666 94.3128 51.928 94.5109 52.1524C94.7119 52.3708 94.9567 52.545 95.2295 52.6639C95.538 52.7972 95.8719 52.8624 96.2083 52.855C96.3994 52.8578 96.59 52.8332 96.7741 52.782C96.9694 52.7373 97.1592 52.6713 97.3399 52.5852C97.6849 52.4292 97.9932 52.2033 98.2452 51.9219L98.3131 51.9613L98.2282 52.6077C97.9306 52.8436 97.5986 53.0331 97.2437 53.1698C96.852 53.3195 96.4357 53.3958 96.0159 53.3947C95.5706 53.3997 95.1279 53.3255 94.7089 53.1754C94.3296 53.0371 93.983 52.8229 93.6905 52.5459C93.4031 52.2675 93.1776 51.9324 93.0285 51.5622C92.8697 51.1732 92.7908 50.7565 92.7965 50.3368C92.7153 49.4335 92.9599 48.531 93.4868 47.7904ZM94.9409 47.515C94.7149 47.6612 94.5222 47.8526 94.3751 48.0771C94.2283 48.3044 94.1176 48.5527 94.0469 48.8135C93.9728 49.0607 93.9254 49.3151 93.9055 49.5723H94.7598H95.6312H96.5195H97.3908C97.3908 49.3221 97.3719 49.0722 97.3342 48.8247C97.2964 48.5661 97.2161 48.3155 97.0966 48.0827C96.9764 47.8598 96.806 47.6674 96.5987 47.5206C96.3503 47.36 96.0573 47.2814 95.7613 47.2958C95.4708 47.2894 95.1851 47.3697 94.9409 47.5262V47.515Z" fill="white"/>
<path d="M102.924 47.9479C102.799 47.9028 102.667 47.8799 102.534 47.8804C102.336 47.8791 102.141 47.9295 101.968 48.0266C101.801 48.125 101.656 48.2572 101.544 48.4144C101.424 48.5851 101.336 48.7754 101.284 48.9766C101.219 49.211 101.186 49.453 101.187 49.6961V51.1632C101.187 51.7253 101.187 52.2031 101.187 52.5178C101.187 52.8326 101.187 53.08 101.233 53.2711C101.057 53.2711 100.882 53.2711 100.706 53.2711C100.531 53.2711 100.327 53.2711 100.141 53.2711C100.167 52.9713 100.184 52.5666 100.192 52.0569C100.192 51.5398 100.192 50.9327 100.192 50.1626V49.741C100.192 49.3981 100.192 49.0047 100.192 48.555C100.192 48.1053 100.192 47.5938 100.141 47.0148L100.424 47.0598C100.516 47.0686 100.609 47.0686 100.701 47.0598C100.784 47.0678 100.867 47.0678 100.95 47.0598L101.227 47.0148C101.193 47.3352 101.176 47.5769 101.17 47.768C101.165 47.9591 101.17 48.1278 101.17 48.2964C101.697 47.3464 102.302 46.8743 102.924 46.8743H103.128C103.203 46.8911 103.277 46.9137 103.349 46.9417C103.294 47.0951 103.267 47.2568 103.269 47.4195C103.269 47.6387 103.269 47.8299 103.269 47.9816L103.179 48.0435C103.103 47.9915 103.016 47.9587 102.924 47.9479Z" fill="white"/>
<path d="M108.52 48.6393C108.69 48.2479 108.947 47.9 109.273 47.6219C109.579 47.3681 109.933 47.1771 110.314 47.0598C111.062 46.8274 111.863 46.8274 112.611 47.0598C112.989 47.1796 113.34 47.3704 113.646 47.6219C113.972 47.8986 114.227 48.247 114.393 48.6393C114.778 49.617 114.778 50.7027 114.393 51.6803C114.226 52.0702 113.97 52.4164 113.646 52.6921C113.347 52.9528 112.993 53.1447 112.611 53.2542C111.86 53.4641 111.065 53.4641 110.314 53.2542C109.928 53.1472 109.573 52.9551 109.273 52.6921C108.948 52.4157 108.691 52.0698 108.52 51.6803C108.143 50.7013 108.143 49.6184 108.52 48.6393ZM109.505 51.225C109.561 51.5476 109.674 51.8578 109.838 52.1413C109.993 52.4058 110.213 52.6265 110.478 52.7821C110.776 52.9481 111.115 53.0297 111.457 53.0182C111.8 53.0296 112.141 52.948 112.441 52.7821C112.703 52.6248 112.921 52.4044 113.075 52.1413C113.239 51.857 113.354 51.5472 113.414 51.225C113.543 50.5187 113.543 49.7953 113.414 49.089C113.354 48.7686 113.239 48.4607 113.075 48.1784C112.921 47.9153 112.703 47.6949 112.441 47.5376C112.141 47.3716 111.8 47.29 111.457 47.3015C111.115 47.2899 110.776 47.3716 110.478 47.5376C110.213 47.6932 109.993 47.9138 109.838 48.1784C109.674 48.4599 109.561 48.7682 109.505 49.089C109.369 49.7946 109.369 50.5194 109.505 51.225Z" fill="white"/>
<path d="M118.501 44.2323C118.328 44.2248 118.156 44.2636 118.003 44.3447C117.868 44.412 117.752 44.5103 117.663 44.6314C117.571 44.7555 117.506 44.8971 117.471 45.0474C117.43 45.211 117.409 45.379 117.409 45.5476C117.414 45.7769 117.431 46.0059 117.46 46.2334C117.494 46.5313 117.533 46.7955 117.584 47.0878H118.948C118.945 47.1309 118.945 47.174 118.948 47.2171C118.945 47.262 118.945 47.3071 118.948 47.352C118.945 47.3951 118.945 47.4382 118.948 47.4813C118.945 47.5262 118.945 47.5713 118.948 47.6162H118.269C118.042 47.6162 117.81 47.6162 117.584 47.6162C117.584 48.5718 117.584 49.5217 117.584 50.4661C117.584 51.4104 117.584 52.3604 117.629 53.316C117.531 53.3075 117.433 53.3075 117.335 53.316H117.052C116.865 53.316 116.667 53.316 116.486 53.316C116.549 52.3604 116.583 51.4161 116.594 50.4773C116.605 49.5386 116.594 48.5886 116.594 47.6162C116.435 47.6162 116.277 47.6162 116.119 47.6162H115.638C115.64 47.5713 115.64 47.5262 115.638 47.4813C115.641 47.4382 115.641 47.3951 115.638 47.352C115.641 47.3071 115.641 47.262 115.638 47.2171C115.64 47.174 115.64 47.1309 115.638 47.0878H116.594C116.597 46.8107 116.624 46.5343 116.673 46.2615C116.728 45.9619 116.805 45.6669 116.905 45.379C117.005 45.094 117.128 44.8176 117.273 44.5527C117.399 44.3138 117.559 44.0942 117.748 43.9007C117.927 43.7298 118.131 43.5875 118.354 43.4791C118.584 43.3587 118.84 43.295 119.1 43.2936C119.19 43.2944 119.28 43.3077 119.366 43.3329L119.332 43.8613C119.332 44.0356 119.332 44.2154 119.332 44.3897L119.253 44.429C119.028 44.2887 118.766 44.2201 118.501 44.2323Z" fill="white"/>
<path d="M125.432 44.9013H124.708C124.459 44.9013 124.205 44.9013 123.956 44.9013L123.226 44.9462C122.994 44.9462 122.784 44.9856 122.598 45.0137C122.635 44.8761 122.656 44.7346 122.66 44.5921C122.653 44.4536 122.632 44.3162 122.598 44.1818L124.295 44.2324C124.861 44.2324 125.427 44.2324 125.992 44.2324C126.558 44.2324 127.124 44.2324 127.69 44.2324L129.387 44.1818C129.348 44.3192 129.326 44.4607 129.319 44.6033C129.323 44.7426 129.346 44.8807 129.387 45.0137C129.201 44.9856 128.991 44.9687 128.759 44.9462L128.029 44.9013C127.775 44.9013 127.526 44.9013 127.271 44.9013H126.547C126.547 45.8063 126.507 46.7169 126.507 47.6275V49.8759C126.507 50.438 126.507 51.0002 126.541 51.5623C126.575 52.1244 126.587 52.6865 126.615 53.2486C126.411 53.2486 126.196 53.2486 125.964 53.2486C125.732 53.2486 125.517 53.2486 125.313 53.2486C125.342 52.6865 125.364 52.1244 125.387 51.5623C125.41 51.0002 125.421 50.438 125.421 49.8759V47.6275C125.472 46.7169 125.461 45.8063 125.432 44.9013Z" fill="white"/>
<path d="M130.49 46.1548C130.49 45.8063 130.49 45.4578 130.49 45.1149C130.49 44.772 130.49 44.446 130.457 44.1312C130.423 43.8164 130.428 43.5691 130.411 43.333C130.804 43.4229 131.212 43.4229 131.605 43.333C131.605 43.5579 131.571 43.8164 131.56 44.1256C131.549 44.4347 131.56 44.7551 131.526 45.0924C131.492 45.4297 131.526 45.7726 131.526 46.1154C131.526 46.4583 131.526 46.7731 131.526 47.0654V48.066C131.752 47.7094 132.058 47.4094 132.42 47.1891C132.794 46.9747 133.221 46.8677 133.653 46.8799C133.908 46.8799 134.161 46.9159 134.406 46.9867C134.658 47.0552 134.892 47.178 135.09 47.3465C135.308 47.5377 135.479 47.7762 135.588 48.0435C135.729 48.4012 135.795 48.7838 135.781 49.1677C135.781 49.5443 135.781 49.9322 135.781 50.3313C135.781 50.7304 135.752 51.1519 135.752 51.6016V52.456C135.752 52.5966 135.752 52.7371 135.752 52.872C135.752 53.0069 135.752 53.1418 135.752 53.2598C135.571 53.2598 135.385 53.2598 135.187 53.2598C134.989 53.2598 134.813 53.2598 134.621 53.2598C134.621 52.8045 134.655 52.338 134.677 51.8546C134.7 51.3712 134.711 50.8709 134.711 50.365V49.5612C134.75 49.0345 134.615 48.5097 134.327 48.066C134.205 47.902 134.046 47.7702 133.861 47.682C133.677 47.5938 133.473 47.5519 133.269 47.5601C133.013 47.5377 132.756 47.5771 132.52 47.675C132.283 47.7729 132.074 47.9264 131.911 48.1222C131.595 48.5931 131.442 49.1535 131.475 49.7186C131.475 49.9659 131.475 50.2526 131.475 50.573C131.475 50.8934 131.475 51.225 131.475 51.5567C131.475 51.8883 131.475 52.2031 131.509 52.5122C131.543 52.8214 131.537 53.0744 131.554 53.2598C131.351 53.2598 131.152 53.2598 130.96 53.2598C130.768 53.2598 130.564 53.2598 130.36 53.2598C130.36 53.0575 130.394 52.8045 130.406 52.4954C130.417 52.1862 130.434 51.8658 130.44 51.5229C130.445 51.18 130.44 50.8315 130.44 50.483C130.44 50.1345 130.44 49.8085 130.44 49.505V47.1216C130.49 46.8293 130.49 46.5033 130.49 46.1548Z" fill="white"/>
<path d="M138.247 47.7905C138.529 47.4761 138.879 47.2297 139.271 47.0699C139.663 46.9102 140.087 46.8413 140.51 46.8686C140.924 46.859 141.336 46.9336 141.721 47.0878C142.042 47.213 142.334 47.4046 142.575 47.6499C142.807 47.891 142.981 48.1812 143.084 48.4987C143.199 48.8334 143.256 49.185 143.254 49.5386C143.254 49.6286 143.254 49.7129 143.254 49.7972C143.259 49.8814 143.259 49.9659 143.254 50.0501L141.806 50.0389C141.336 50.0389 140.866 50.0389 140.385 50.0389C140.099 50.0389 139.81 50.0389 139.52 50.0389H138.654C138.647 50.1043 138.647 50.1703 138.654 50.2356V50.4099C138.651 50.7365 138.703 51.0612 138.807 51.3711C138.9 51.6562 139.052 51.9186 139.254 52.1412C139.452 52.3606 139.695 52.535 139.967 52.6527C140.277 52.7865 140.613 52.8517 140.951 52.8438C141.142 52.8457 141.333 52.8211 141.517 52.7708C141.712 52.7241 141.901 52.6582 142.083 52.574C142.257 52.4908 142.423 52.393 142.581 52.2817C142.726 52.1713 142.861 52.047 142.982 51.9107L143.05 51.9501L142.971 52.5965C142.671 52.8323 142.338 53.0218 141.981 53.1586C141.589 53.3093 141.173 53.3856 140.753 53.3834C140.31 53.3891 139.869 53.3148 139.452 53.1642C139.07 53.0274 138.721 52.8129 138.428 52.5347C138.14 52.2563 137.915 51.9212 137.766 51.551C137.61 51.1612 137.531 50.7451 137.534 50.3256C137.464 49.4236 137.717 48.5261 138.247 47.7905ZM139.706 47.515C139.48 47.6601 139.287 47.8518 139.141 48.0771C138.996 48.3057 138.886 48.5537 138.812 48.8135C138.738 49.0608 138.691 49.3151 138.671 49.5723H139.525H140.397H141.285H142.156C142.156 49.3221 142.137 49.0722 142.1 48.8247C142.062 48.5662 141.982 48.3155 141.862 48.0828C141.744 47.8586 141.573 47.6658 141.364 47.5207C141.116 47.3601 140.823 47.2814 140.527 47.2958C140.236 47.2881 139.95 47.3684 139.706 47.5263V47.515Z" fill="white"/>
<path d="M149.121 45.9244C149.121 45.3623 149.076 44.8001 149.048 44.238L149.376 44.2886C149.483 44.2942 149.591 44.2942 149.699 44.2886H150.015L150.344 44.238C150.344 44.8001 150.293 45.3904 150.27 45.9244C150.247 46.4584 150.27 47.0486 150.27 47.6107V49.8591C150.27 50.4212 150.27 50.9833 150.27 51.5455C150.27 52.1076 150.321 52.6697 150.344 53.2318C150.14 53.2318 149.925 53.2318 149.699 53.2318C149.472 53.2318 149.252 53.2318 149.048 53.2318C149.076 52.6697 149.099 52.1076 149.121 51.5455C149.144 50.9833 149.155 50.4212 149.155 49.8591V47.6107C149.161 47.0486 149.161 46.4809 149.121 45.9244Z" fill="white"/>
<path d="M159.702 45.9244C159.702 45.3623 159.651 44.8001 159.628 44.238L159.956 44.2886C160.064 44.2942 160.171 44.2942 160.279 44.2886H160.596L160.924 44.238C160.924 44.8001 160.873 45.3904 160.856 45.9244C160.839 46.4584 160.822 47.0486 160.822 47.6107V49.8591C160.822 50.4212 160.822 50.9833 160.856 51.5455C160.89 52.1076 160.901 52.6697 160.924 53.2318C160.72 53.2318 160.505 53.2318 160.279 53.2318C160.053 53.2318 159.832 53.2318 159.628 53.2318C159.628 52.6697 159.679 52.1076 159.702 51.5455C159.724 50.9833 159.736 50.4212 159.736 49.8591V48.6787H158.35H155.577H154.191V49.8591C154.191 50.4212 154.191 50.9833 154.225 51.5455C154.259 52.1076 154.27 52.6697 154.298 53.2318C154.095 53.2318 153.874 53.2318 153.648 53.2318C153.421 53.2318 153.201 53.2318 152.997 53.2318C153.025 52.6697 153.048 52.1076 153.071 51.5455C153.093 50.9833 153.105 50.4212 153.105 49.8591V47.6107C153.105 47.0336 153.093 46.4715 153.071 45.9244C153.071 45.3623 153.025 44.8001 152.997 44.238L153.331 44.2886C153.436 44.2944 153.542 44.2944 153.648 44.2886C153.753 44.2942 153.859 44.2942 153.965 44.2886L154.298 44.238C154.27 44.8001 154.247 45.3904 154.225 45.9244C154.202 46.4584 154.191 47.0486 154.191 47.6107V48.0716L155.577 48.0997C156.024 48.0997 156.482 48.0997 156.963 48.0997C157.444 48.0997 157.903 48.0997 158.35 48.0997L159.736 48.0716V47.6107C159.736 47.0448 159.724 46.4827 159.702 45.9244Z" fill="white"/>
<path d="M170.164 52.9562C169.961 53.0493 169.751 53.1245 169.536 53.1811C169.292 53.2485 169.021 53.3047 168.721 53.3609C168.411 53.4134 168.096 53.4397 167.782 53.4396C167.125 53.4452 166.471 53.3446 165.847 53.1417C165.276 52.9562 164.753 52.6493 164.313 52.2423C163.875 51.8244 163.532 51.3185 163.306 50.7584C162.824 49.4712 162.824 48.0545 163.306 46.7674C163.534 46.2041 163.884 45.6974 164.33 45.2834C164.782 44.8705 165.316 44.5565 165.898 44.3616C166.547 44.1467 167.228 44.0404 167.912 44.0468C168.451 44.0425 168.989 44.1029 169.513 44.2267C169.952 44.3298 170.38 44.4728 170.792 44.6539C170.706 44.8095 170.649 44.9788 170.622 45.1541C170.577 45.3621 170.537 45.542 170.515 45.6825H170.435C170.32 45.5551 170.195 45.4367 170.062 45.3284C169.883 45.187 169.694 45.0592 169.496 44.9462C169.269 44.8176 169.028 44.7139 168.778 44.637C168.494 44.5503 168.198 44.5086 167.901 44.5133C167.407 44.5098 166.916 44.5936 166.452 44.7607C166.01 44.9264 165.611 45.1898 165.287 45.5307C164.934 45.9091 164.669 46.3601 164.511 46.8517C164.134 48.083 164.134 49.3978 164.511 50.6291C164.669 51.1207 164.934 51.5717 165.287 51.95C165.611 52.291 166.01 52.5543 166.452 52.7201C166.916 52.8872 167.407 52.971 167.901 52.9675C168.199 52.9707 168.496 52.931 168.783 52.8494C169.038 52.7766 169.286 52.6826 169.524 52.5684C169.737 52.4648 169.942 52.3445 170.135 52.2086C170.317 52.0849 170.469 51.9725 170.594 51.877L170.645 51.9276L170.526 52.7033C170.417 52.8032 170.295 52.8883 170.164 52.9562Z" fill="white"/>
<path d="M183.845 45.3509C183.64 45.1885 183.418 45.049 183.183 44.935C182.924 44.8117 182.653 44.7156 182.374 44.6483C182.063 44.5699 181.743 44.5321 181.423 44.5359C180.903 44.532 180.387 44.6156 179.895 44.7832C179.431 44.945 179.01 45.2082 178.662 45.5533C178.295 45.9298 178.013 46.3803 177.836 46.8743C177.626 47.4815 177.526 48.121 177.542 48.7629C177.532 49.3526 177.622 49.9398 177.808 50.4999C177.964 50.9887 178.229 51.4363 178.583 51.8096C178.93 52.1748 179.355 52.4573 179.827 52.6359C180.359 52.8342 180.923 52.9315 181.491 52.9226C181.678 52.9226 181.87 52.9226 182.057 52.9226C182.243 52.9226 182.458 52.8776 182.623 52.8439C182.803 52.8102 182.98 52.7652 183.154 52.709C183.302 52.6662 183.443 52.6038 183.573 52.5235C183.573 52.2649 183.573 52.0007 183.573 51.7365C183.573 51.4723 183.573 51.2025 183.573 50.9327C183.573 50.6629 183.573 50.32 183.573 50.0108C183.573 49.7017 183.573 49.4094 183.528 49.1283C183.736 49.1721 183.949 49.1947 184.161 49.1958C184.259 49.2015 184.358 49.2015 184.456 49.1958C184.55 49.1905 184.643 49.1735 184.733 49.1452C184.733 49.3475 184.705 49.6623 184.693 50.1008C184.682 50.5392 184.693 51.1069 184.693 51.8208C184.693 51.9951 184.693 52.1693 184.693 52.3492C184.693 52.5291 184.693 52.709 184.693 52.9113C184.466 52.9974 184.233 53.0706 183.997 53.1305C183.72 53.2036 183.432 53.2654 183.109 53.316L182.17 53.4453C181.887 53.4833 181.601 53.5039 181.316 53.5071C180.594 53.516 179.875 53.4194 179.182 53.2205C178.599 53.0287 178.065 52.7099 177.621 52.2874C177.169 51.8795 176.819 51.3736 176.597 50.809C176.348 50.1578 176.227 49.4651 176.24 48.7686C176.228 48.0852 176.355 47.4064 176.614 46.7731C176.845 46.2063 177.203 45.6989 177.66 45.2891C178.135 44.8715 178.692 44.5575 179.296 44.3673C179.984 44.1513 180.702 44.045 181.423 44.0525C181.824 44.0482 182.225 44.0726 182.623 44.1255C182.936 44.1672 183.246 44.2311 183.55 44.3167C183.792 44.386 184.03 44.4686 184.263 44.564L184.829 44.8169C184.746 44.966 184.681 45.1246 184.637 45.2891C184.582 45.4727 184.544 45.6609 184.524 45.8512H184.365C184.209 45.6678 184.034 45.5003 183.845 45.3509Z" fill="white"/>
<path d="M189.808 47.9479C189.683 47.9028 189.551 47.8799 189.418 47.8804C189.219 47.8791 189.024 47.9295 188.852 48.0266C188.682 48.1219 188.537 48.2546 188.427 48.4144C188.306 48.5848 188.216 48.7751 188.161 48.9766C188.097 49.211 188.064 49.453 188.065 49.6961V51.1632C188.065 51.7253 188.065 52.2031 188.065 52.5178C188.067 52.7697 188.084 53.0213 188.116 53.2711C187.935 53.2711 187.76 53.2711 187.584 53.2711C187.409 53.2711 187.205 53.2711 187.019 53.2711C187.045 52.9713 187.062 52.5666 187.069 52.0569C187.069 51.5398 187.069 50.9327 187.069 50.1626V49.741C187.069 49.3981 187.069 49.0047 187.069 48.555C187.069 48.1053 187.069 47.5938 187.019 47.0148L187.301 47.0598C187.394 47.0686 187.486 47.0686 187.579 47.0598C187.661 47.0678 187.745 47.0678 187.828 47.0598L188.111 47.0148C188.071 47.3352 188.054 47.5769 188.048 47.768C188.043 47.9591 188.048 48.1278 188.048 48.2964H188.077C188.597 47.3464 189.18 46.8743 189.825 46.8743H190.029C190.104 46.8911 190.178 46.9137 190.249 46.9417C190.195 47.0951 190.168 47.2568 190.17 47.4195C190.17 47.6387 190.17 47.8299 190.17 47.9816L190.074 48.0435C189.995 47.9898 189.903 47.9569 189.808 47.9479Z" fill="white"/>
<path d="M191.455 48.6393C191.625 48.2478 191.882 47.8999 192.207 47.6219C192.512 47.3693 192.864 47.1784 193.243 47.0598C193.609 46.9464 193.99 46.8877 194.374 46.8855C194.758 46.887 195.139 46.9457 195.506 47.0598C195.884 47.1795 196.235 47.3704 196.541 47.6219C196.864 47.9005 197.12 48.2484 197.288 48.6393C197.673 49.6169 197.673 50.7026 197.288 51.6803C197.119 52.0692 196.864 52.415 196.541 52.6921C196.242 52.9527 195.888 53.1446 195.506 53.2542C195.137 53.3549 194.757 53.4078 194.374 53.4116C193.992 53.4072 193.611 53.3543 193.243 53.2542C192.86 53.1459 192.506 52.9538 192.207 52.6921C191.883 52.4156 191.625 52.0697 191.455 51.6803C191.078 50.7012 191.078 49.6183 191.455 48.6393ZM192.439 51.225C192.495 51.5476 192.608 51.8577 192.773 52.1412C192.927 52.4058 193.147 52.6265 193.412 52.782C193.711 52.9481 194.049 53.0297 194.391 53.0181C194.735 53.0296 195.075 52.948 195.376 52.782C195.638 52.6247 195.856 52.4043 196.009 52.1412C196.173 51.8569 196.288 51.5472 196.349 51.225C196.477 50.5187 196.477 49.7953 196.349 49.089C196.288 48.7685 196.173 48.4606 196.009 48.1784C195.856 47.9152 195.638 47.6949 195.376 47.5375C195.075 47.3716 194.735 47.29 194.391 47.3015C194.049 47.2899 193.711 47.3715 193.412 47.5375C193.147 47.6931 192.927 47.9138 192.773 48.1784C192.608 48.4599 192.495 48.7682 192.439 49.089C192.303 49.7946 192.303 50.5194 192.439 51.225Z" fill="white"/>
<path d="M199.37 50.0839C199.37 49.7579 199.37 49.4318 199.37 49.1058C199.37 48.7967 199.37 48.465 199.37 48.1053V47.0092C199.556 47.0503 199.745 47.0729 199.936 47.0766C200.126 47.0731 200.316 47.0505 200.502 47.0092C200.456 47.5375 200.428 48.1334 200.405 48.7405C200.383 49.3475 200.371 50.0164 200.371 50.6741C200.359 51.0265 200.399 51.3789 200.49 51.7196C200.545 51.9253 200.643 52.117 200.779 52.2817C200.922 52.4384 201.097 52.563 201.292 52.6473C201.487 52.7316 201.698 52.7737 201.91 52.7708C202.237 52.7838 202.56 52.6997 202.838 52.5291C203.08 52.3856 203.276 52.1771 203.404 51.9276C203.466 51.7758 203.517 51.6522 203.551 51.5454C203.592 51.4075 203.62 51.2665 203.636 51.1238C203.661 50.8885 203.675 50.6521 203.676 50.4155C203.676 50.112 203.676 49.7073 203.676 49.1901V48.0659C203.676 47.8692 203.676 47.6893 203.676 47.5038C203.676 47.3183 203.676 47.1609 203.676 47.0035L203.953 47.0485C204.14 47.0799 204.331 47.0799 204.519 47.0485L204.785 47.0035C204.739 47.6893 204.717 48.3526 204.705 48.9878C204.694 49.623 204.705 50.2975 204.705 51.0114C204.705 51.4048 204.705 51.7927 204.705 52.1693C204.705 52.5459 204.705 52.9113 204.745 53.2598C204.57 53.2598 204.394 53.2598 204.23 53.2598C204.066 53.2598 203.891 53.2598 203.71 53.2598C203.71 53.1811 203.71 53.0968 203.71 53.0125C203.71 52.9282 203.71 52.8326 203.71 52.7371V52.1749H203.681C203.484 52.5646 203.175 52.8874 202.793 53.1024C202.433 53.2999 202.028 53.4025 201.616 53.4003C201.022 53.4283 200.44 53.2269 199.992 52.8382C199.787 52.6326 199.628 52.386 199.525 52.1147C199.423 51.8434 199.379 51.5535 199.398 51.2643C199.347 50.8146 199.359 50.4155 199.37 50.0839Z" fill="white"/>
<path d="M206.833 49.8703V48.8191C206.833 48.4763 206.833 48.1446 206.799 47.8298C206.765 47.5151 206.799 47.2677 206.754 47.0091C206.95 47.0487 207.148 47.0712 207.348 47.0766C207.549 47.0713 207.75 47.0487 207.948 47.0091C207.908 47.2396 207.885 47.4588 207.868 47.6668C207.851 47.8748 207.84 48.0884 207.84 48.302H207.868C207.941 48.1424 208.028 47.99 208.129 47.8467C208.257 47.6742 208.407 47.5192 208.576 47.3858C209.014 47.0489 209.555 46.8705 210.109 46.8799C210.448 46.8797 210.785 46.9446 211.099 47.071C211.428 47.1915 211.726 47.3836 211.971 47.6331C212.237 47.9267 212.444 48.2682 212.582 48.6393C212.745 49.1071 212.823 49.6 212.814 50.0951C212.825 50.5941 212.739 51.0905 212.559 51.5566C212.412 51.9399 212.189 52.2898 211.903 52.5853C211.645 52.8524 211.33 53.058 210.98 53.1867C210.649 53.3097 210.299 53.3744 209.945 53.3778C209.512 53.4029 209.081 53.2964 208.71 53.0725C208.339 52.8486 208.046 52.5179 207.868 52.1243H207.84V52.9563C207.84 53.2373 207.84 53.5521 207.84 53.895C207.84 54.2379 207.84 54.5864 207.84 54.9293C207.84 55.2722 207.84 55.5982 207.84 55.913C207.84 56.2277 207.874 56.4751 207.891 56.7112C207.693 56.6716 207.493 56.649 207.291 56.6437C207.092 56.6491 206.893 56.6716 206.697 56.7112C206.697 56.4919 206.731 56.2221 206.743 55.913C206.754 55.6038 206.743 55.2722 206.776 54.9293V53.895C206.776 53.5521 206.776 53.2373 206.776 52.9563V50.8202C206.839 50.5448 206.839 50.2188 206.833 49.8703ZM211.461 48.8023C211.377 48.503 211.233 48.2238 211.037 47.9816C210.891 47.7894 210.695 47.6398 210.471 47.5488C210.263 47.4722 210.043 47.4322 209.82 47.4307C209.502 47.4215 209.187 47.4993 208.91 47.6556C208.661 47.8052 208.451 48.0114 208.298 48.257C208.127 48.5264 208.01 48.826 207.953 49.1395C207.879 49.4926 207.843 49.8525 207.846 50.2132C207.846 52.0419 208.491 52.9544 209.781 52.9506C210.072 52.9578 210.358 52.8817 210.607 52.7314C210.842 52.5796 211.036 52.3731 211.173 52.13C211.335 51.8467 211.449 51.5392 211.512 51.2194C211.592 50.85 211.63 50.4729 211.625 50.0951C211.638 49.6584 211.582 49.2223 211.461 48.8023Z" fill="white"/>
<path d="M5.92992 28.3866C7.10112 26.7003 9.89051 21.2816 13.1099 16.6554C8.58352 20.7194 3.76857 25.25 2.42763 27.3017C-0.163725 31.2365 -4.18655 40.4045 11.8878 43.9289C-0.435308 40.0223 3.4687 31.956 5.92992 28.3866Z" fill="white"/>
<path d="M21.0305 37.3578C21.0305 37.3578 24.3517 41.1295 24.199 45.8625C24.0462 50.5955 22.428 51.3262 20.0517 54.4515C17.6753 57.5769 12.0569 62.6583 20.9852 71C20.9852 71 17.3358 65.4632 18.971 61.5229C20.6061 57.5825 24.9741 55.261 25.902 52.0007C26.8299 48.7405 27.8766 45.0924 21.0305 37.3578Z" fill="white"/>
<path d="M22.604 7.70654C22.604 7.70654 28.726 14.3956 28.0527 23.1589C27.3794 31.9222 24.1769 33.4118 19.3167 39.4095C14.4565 45.4072 3.31031 55.3059 19.9221 69.932C19.9221 69.932 13.1722 60.0164 16.6518 52.5797C20.1315 45.143 28.7882 40.4831 30.8477 34.3561C32.9072 28.2291 35.2383 21.3995 22.604 7.70654Z" fill="white"/>
<path d="M9.57891 29.9211C9.48272 25.3455 14.2015 18.87 15.1068 17.6727C16.464 15.9328 17.1467 13.7663 17.0305 11.5682C18.9429 13.5693 22.4621 20.6125 22.5696 25.6209C22.5863 26.2696 22.5693 26.9188 22.5187 27.5658C23.3448 26.0594 24.1595 24.1932 24.0633 19.6963C23.9106 12.6755 18.9712 2.83301 16.3062 0.0224609C16.3855 3.83356 15.384 6.02017 13.6074 8.57214C12.3343 10.2585 5.72016 19.3253 5.86161 25.7333C6.04832 34.4067 10.3314 38.6618 14.2354 41.4274C14.3033 41.0789 14.3938 40.7135 14.5014 40.3482C12.0514 38.3302 9.69206 35.3342 9.57891 29.9211Z" fill="white"/>
<path fill-rule="evenodd" clip-rule="evenodd" d="M12.6288 30.2302C12.5991 31.6394 12.9322 33.0328 13.5967 34.2782C14.2611 35.5236 15.2347 36.5798 16.4253 37.3465C16.7569 36.0247 17.3791 34.7922 18.2472 33.7377C18.8782 32.9851 19.4675 32.1988 20.0124 31.3825C20.4311 30.6236 20.9347 29.8648 20.8838 27.5039C20.8102 24.3224 18.581 19.848 17.3589 18.572C17.4349 19.9706 17.001 21.3496 16.1367 22.4562C15.5653 23.2038 12.5609 27.3184 12.6288 30.2302Z" fill="white"/>
<path d="M46.5085 35.5028C46.5085 36.4977 46.5651 36.5371 48.121 36.627V37.2228H42.9893V36.627C44.5622 36.5146 44.6018 36.4752 44.6018 35.5028V26.509C44.6018 25.5141 44.5622 25.4804 42.9893 25.3848V24.744H48.121V25.3567C46.5651 25.4523 46.5085 25.486 46.5085 26.4809V35.5028Z" fill="white"/>
<path d="M52.9308 31.0902V35.4859C52.9308 36.4977 52.993 36.5371 54.5659 36.6495V37.2453H49.3945V36.6495C50.9731 36.5371 51.0071 36.4977 51.0071 35.4859V26.4922C51.0071 25.4972 50.9731 25.4635 49.3945 25.368V24.744H54.5659V25.3567C52.993 25.4523 52.9308 25.486 52.9308 26.4809V30.3651H59.1546V26.5034C59.1546 25.5085 59.115 25.4748 57.542 25.3792V24.744H62.6964V25.3567C61.1348 25.4523 61.0783 25.486 61.0783 26.4809V35.4747C61.0783 36.4865 61.1348 36.5258 62.6964 36.6382V37.2341H57.5024V36.6382C59.0753 36.5258 59.115 36.4865 59.115 35.4747V31.079L52.9308 31.0902Z" fill="white"/>
<path d="M75.1095 33.6535L74.8606 36.7451C73.6008 37.2954 72.2364 37.5695 70.8604 37.5489C66.5151 37.5489 64.2066 35.4859 64.2066 31.0902C64.1253 29.3536 64.7165 27.6519 65.8587 26.3348C66.9394 25.1094 68.7273 24.4405 70.9509 24.4405C72.2756 24.4152 73.5912 24.6621 74.8153 25.1656V28.0717H74.1816C73.8365 25.9694 72.6427 25.1263 70.7868 25.1263C67.3921 25.1263 66.3453 28.1673 66.3453 31.034C66.3453 33.1925 67.0526 36.88 70.7699 36.88C73.1123 36.88 73.961 35.5421 74.4815 33.6535H75.1095Z" fill="white"/>
<path d="M87.6539 27.8975C87.3483 26.065 86.4827 25.1263 84.9437 25.1263C84.6349 25.1046 84.3251 25.1491 84.0351 25.2567C83.7451 25.3642 83.4818 25.5324 83.2629 25.7499C83.044 25.9673 82.8747 26.229 82.7664 26.517C82.6581 26.8051 82.6134 27.113 82.6353 27.4197C82.6353 28.8531 84.095 29.5445 85.2492 29.983C87.4276 30.8036 89.0231 31.5119 89.0231 33.8615C89.0231 35.7727 87.7727 37.5489 84.4967 37.5489C83.2293 37.5489 81.73 37.2229 80.9209 36.4809L80.7285 33.558H81.3452C81.8262 35.5984 82.9182 36.88 84.5929 36.88C86.2677 36.88 87.173 36.02 87.173 34.4742C87.173 32.9284 85.651 32.1977 84.344 31.7199C82.4768 31.051 80.9492 30.2696 80.9492 28.0324C80.9492 25.5873 82.8503 24.4406 85.1021 24.4406C86.2149 24.429 87.3133 24.6916 88.2989 25.205V27.8975H87.6539Z" fill="white"/>
<path d="M91.1392 30.1178C91.1392 29.4658 91.0204 29.3702 90.5734 29.2915L89.8831 29.196V28.6788L92.6499 28.2179L92.9045 29.5164C93.6117 29.0779 94.6528 28.201 95.9598 28.201C99.1566 28.201 99.4791 31.2589 99.4791 32.6305C99.4791 36.3404 97.3856 37.4702 94.9527 37.4702C94.2602 37.4806 93.5729 37.3505 92.9328 37.088V39.8592C92.9328 40.7754 93.0459 40.7923 94.5453 40.8879V41.4781H89.8096V40.8879C91.06 40.7923 91.1392 40.7529 91.1392 39.8592V30.1178ZM92.9101 34.4517C92.8877 34.8189 92.926 35.1873 93.0233 35.5422C93.1616 35.9358 93.4268 36.2731 93.7776 36.5017C94.1285 36.7304 94.5455 36.8377 94.964 36.8069C96.7349 36.8069 97.544 35.3736 97.544 32.771C97.544 29.6738 95.9881 29.2353 95.2525 29.2353C94.8187 29.2201 94.3897 29.3291 94.0165 29.5493C93.6433 29.7696 93.3418 30.0918 93.1478 30.4776C92.9885 30.7908 92.9107 31.1386 92.9215 31.4894L92.9101 34.4517Z" fill="white"/>
<path d="M103.219 32.563C103.179 34.4349 103.643 36.4978 105.872 36.4978C107.275 36.4978 107.932 35.6546 108.452 34.6204L109.018 34.907C108.807 35.6717 108.339 36.3414 107.691 36.8047C107.044 37.2681 106.256 37.497 105.459 37.4534C102.421 37.4534 101.267 35.7108 101.267 32.8834C101.267 30.1909 102.613 28.1842 105.437 28.1842C108.763 28.1842 109.131 30.7418 109.131 31.8154C109.131 32.3775 108.786 32.5405 108.379 32.5405L103.219 32.563ZM106.585 31.8379C107.083 31.8379 107.202 31.6074 107.202 31.2758C107.202 30.5675 107.009 28.8868 105.352 28.8868C103.524 28.8868 103.236 31.0847 103.236 31.8492L106.585 31.8379Z" fill="white"/>
<path d="M118.473 34.862C118.27 35.6282 117.812 36.3031 117.172 36.7761C116.533 37.249 115.75 37.4918 114.953 37.4646C112.26 37.4646 110.761 35.9357 110.761 32.9115C110.761 30.4888 111.892 28.1954 115.185 28.1954C117.109 28.1954 118.337 29.1117 118.337 29.9492C118.337 30.6406 117.624 30.8711 117.239 30.8711C116.854 30.8711 116.781 30.7137 116.673 30.4101C116.311 29.4377 115.808 28.8643 114.976 28.8643C113.765 28.8643 112.713 29.9324 112.713 32.5911C112.713 34.3449 113.25 36.4865 115.349 36.4865C116.656 36.4865 117.347 35.857 117.907 34.5979L118.473 34.862Z" fill="white"/>
<path d="M120.708 30.1178C120.708 29.4658 120.589 29.3533 120.142 29.2915L119.452 29.1959V28.6788L122.332 28.2179L122.467 28.3359V35.6152C122.467 36.5146 122.53 36.5483 123.814 36.6439V37.2397H119.355V36.6439C120.64 36.5483 120.702 36.5146 120.702 35.6152L120.708 30.1178ZM122.688 25.6828C122.694 25.8304 122.668 25.9777 122.613 26.1149C122.558 26.2522 122.474 26.3763 122.367 26.4792C122.261 26.5821 122.133 26.6615 121.994 26.7122C121.854 26.7628 121.705 26.7836 121.556 26.7733C121.409 26.781 121.261 26.7584 121.122 26.7068C120.984 26.6552 120.857 26.5757 120.751 26.4733C120.645 26.371 120.561 26.2479 120.505 26.1119C120.449 25.9758 120.422 25.8298 120.425 25.6828C120.42 25.5318 120.445 25.3814 120.499 25.2404C120.554 25.0995 120.636 24.9709 120.742 24.8623C120.848 24.7537 120.974 24.6673 121.114 24.6084C121.254 24.5494 121.404 24.5191 121.556 24.5192C121.711 24.5095 121.866 24.5333 122.01 24.5889C122.155 24.6445 122.285 24.7306 122.393 24.8413C122.5 24.9519 122.583 25.0845 122.633 25.2298C122.684 25.3751 122.703 25.5296 122.688 25.6828Z" fill="white"/>
<path d="M132.035 34.8621C132.035 35.9863 132.323 36.2954 132.652 36.3741C132.886 36.4309 133.13 36.4309 133.365 36.3741L133.438 36.9362C132.853 37.2718 132.19 37.45 131.514 37.4534C130.881 37.4534 130.553 37.1049 130.321 36.3798C129.555 36.9892 128.627 37.3625 127.65 37.4534C127.304 37.4756 126.958 37.4256 126.632 37.3065C126.307 37.1873 126.011 37.0018 125.763 36.7619C125.514 36.5219 125.319 36.2329 125.19 35.9134C125.061 35.5939 125.001 35.2511 125.013 34.907C124.999 34.4028 125.161 33.9092 125.47 33.509C125.779 33.1088 126.217 32.8264 126.711 32.7092C128.137 32.2707 129.885 31.8154 130.349 31.3376V30.7249C130.349 29.3084 129.619 28.87 128.753 28.87C128.018 28.87 127.384 29.2522 126.982 30.59C126.886 30.8936 126.75 31.1072 126.366 31.1072C125.981 31.1072 125.347 30.8374 125.347 30.2471C125.347 29.2522 126.83 28.1842 128.906 28.1842C131.656 28.1842 132.041 29.5951 132.041 30.6462L132.035 34.8621ZM130.338 32.1302C129.671 32.4617 128.983 32.749 128.278 32.9902C127.299 33.3725 126.914 33.8109 126.914 34.6766C126.914 35.7277 127.48 36.4922 128.567 36.4922C128.803 36.5027 129.04 36.4639 129.261 36.3781C129.481 36.2924 129.682 36.1616 129.849 35.9943C130.015 35.8269 130.145 35.6267 130.229 35.4065C130.314 35.1864 130.35 34.9511 130.338 34.7159V32.1302Z" fill="white"/>
<path d="M135.418 25.6434C135.418 24.9576 135.322 24.8621 134.852 24.8059L134.167 24.744V24.2325L137.053 23.7885L137.189 23.884V35.6208C137.189 36.5202 137.268 36.5539 138.535 36.6495V37.2453H134.071V36.6495C135.361 36.5539 135.418 36.5202 135.418 35.6208V25.6434Z" fill="white"/>
<path d="M142.372 29.2408V34.6708C142.372 36.0255 142.938 36.4471 143.566 36.4471C143.956 36.4605 144.344 36.3815 144.697 36.2166L144.856 36.7169C144.193 37.1869 143.406 37.4527 142.593 37.4814C142.316 37.5024 142.038 37.4629 141.778 37.3658C141.518 37.2686 141.283 37.1161 141.089 36.9189C140.894 36.7218 140.746 36.4848 140.654 36.2246C140.562 35.9644 140.528 35.6873 140.556 35.4128V29.2408H139.266V28.437H140.674L141.806 26.1886H142.372V28.437H144.635V29.2408H142.372Z" fill="white"/>
<path d="M154.254 28.4314V28.9935C153.348 29.0722 153.235 29.2071 152.907 29.9491C152.37 31.1914 150.734 35.6264 149.62 38.7967C148.692 41.4555 147.753 41.6859 147 41.6859C146.248 41.6859 145.733 41.2081 145.733 40.7697C145.726 40.5308 145.803 40.2968 145.95 40.1081C146.098 39.9193 146.307 39.7876 146.542 39.7354C146.648 39.7365 146.753 39.759 146.85 39.8015C146.947 39.844 147.035 39.9057 147.108 39.9827C147.419 40.2919 147.589 40.3481 147.764 40.3481C148.358 40.3481 148.896 38.8754 149.031 38.0378C149.053 37.7318 149.007 37.4246 148.896 37.1385C148.437 35.84 146.859 32.0795 145.953 29.9322C145.625 29.1509 145.456 29.0553 144.59 28.9935V28.4314H148.822V28.9935L148.053 29.0891C147.628 29.1284 147.668 29.3195 147.764 29.6512C148.477 31.5061 149.224 33.378 150.027 35.5196H150.067C150.836 33.4173 151.702 30.8147 151.968 29.7074C152.064 29.3645 152.024 29.1453 151.719 29.1172L150.78 28.9991V28.437L154.254 28.4314Z" fill="white"/>
<path d="M163.969 24.744C166.045 24.744 168.201 25.1656 168.201 27.6108C168.201 29.1566 167.16 30.056 165.428 30.4213V30.4607C167.199 30.6911 168.778 31.36 168.778 33.5916C168.801 34.079 168.71 34.5651 168.514 35.0125C168.318 35.4598 168.021 35.8564 167.646 36.1717C166.781 36.9024 165.383 37.2453 163.742 37.2453H158.531V36.6495C160.104 36.5371 160.144 36.4977 160.144 35.5253V26.5315C160.144 25.5366 160.104 25.5029 158.531 25.4073V24.744H163.969ZM162.062 30.1684H163.193C165.094 30.1684 166.175 29.5219 166.175 27.7232C166.175 25.9244 164.829 25.3904 163.465 25.4129C162.101 25.4354 162.056 25.5254 162.056 26.2898L162.062 30.1684ZM162.062 35.1599C162.062 36.2841 162.254 36.5539 163.657 36.5539C165.219 36.5539 166.718 35.8625 166.718 33.7434C166.718 31.7367 165.525 30.8766 163.278 30.8766H162.062V35.1599Z" fill="white"/>
<path d="M172.568 32.563C172.528 34.4349 172.992 36.4978 175.222 36.4978C176.625 36.4978 177.281 35.6546 177.796 34.6204L178.362 34.907C178.152 35.6722 177.684 36.3426 177.036 36.806C176.388 37.2695 175.6 37.498 174.803 37.4534C171.765 37.4534 170.61 35.7108 170.61 32.8834C170.61 30.1909 171.957 28.1842 174.786 28.1842C178.113 28.1842 178.481 30.7418 178.481 31.8154C178.481 32.3775 178.135 32.5406 177.728 32.5406L172.568 32.563ZM175.935 31.8379C176.432 31.8379 176.546 31.6074 176.546 31.2758C176.546 30.5675 176.353 28.8868 174.701 28.8868C172.874 28.8868 172.585 31.0847 172.585 31.8492L175.935 31.8379Z" fill="white"/>
<path d="M188.706 35.5984C188.706 36.5203 188.785 36.554 190.035 36.6495V37.2454H185.588V36.6495C186.861 36.554 186.935 36.5371 186.935 35.6209V31.4557C186.935 29.9042 186.284 29.2353 185.073 29.2353C184.636 29.2367 184.208 29.3569 183.835 29.5828C183.462 29.8088 183.158 30.1318 182.957 30.5169C182.81 30.819 182.749 31.1554 182.782 31.4894V35.6209C182.782 36.5371 182.878 36.554 184.111 36.6495V37.2454H179.664V36.6495C180.954 36.554 181.011 36.5203 181.011 35.5984V30.1178C181.011 29.4658 180.898 29.3534 180.445 29.2915L179.811 29.196V28.6788L182.527 28.2179L182.776 29.5557C183.908 28.8475 184.717 28.201 186.046 28.201C187.715 28.201 188.717 29.2522 188.717 31.0678L188.706 35.5984Z" fill="white"/>
<path d="M193.209 32.563C193.169 34.4349 193.633 36.4978 195.862 36.4978C197.266 36.4978 197.922 35.6546 198.442 34.6204L199.008 34.907C198.797 35.6717 198.329 36.3414 197.682 36.8047C197.034 37.2681 196.246 37.497 195.449 37.4534C192.405 37.4534 191.257 35.7108 191.257 32.8834C191.257 30.1909 192.598 28.1842 195.427 28.1842C198.754 28.1842 199.121 30.7418 199.121 31.8154C199.121 32.3775 198.776 32.5405 198.369 32.5405L193.209 32.563ZM196.575 31.8379C197.073 31.8379 197.192 31.6074 197.192 31.2758C197.192 30.5675 197 28.8868 195.342 28.8868C193.514 28.8868 193.226 31.0847 193.226 31.8492L196.575 31.8379Z" fill="white"/>
<path d="M201.65 28.4315V27.6108C201.65 25.6266 202.42 23.7885 204.694 23.7885C206.154 23.7885 206.578 24.4236 206.578 24.9127C206.558 25.1424 206.456 25.3574 206.29 25.5183C206.123 25.6793 205.905 25.7756 205.673 25.7896C205.568 25.7982 205.463 25.7713 205.376 25.713C205.289 25.6548 205.224 25.5688 205.192 25.4692C204.751 24.4517 204.422 24.4349 204.151 24.4349C203.879 24.4349 203.308 24.6091 203.347 26.2898C203.347 26.9756 203.404 27.7232 203.421 28.4259H206.018C207.048 28.424 208.076 28.3545 209.096 28.2179L209.175 28.3134V35.6208C209.175 36.5202 209.271 36.5539 210.522 36.6495V37.2453H206.075V36.6495C207.348 36.5539 207.421 36.5371 207.421 35.6208V30.056C207.421 29.4264 207.308 29.2353 206.855 29.2353H203.421V35.6208C203.421 36.5371 203.517 36.5539 204.92 36.6495V37.2453H200.303V36.6495C201.594 36.5539 201.65 36.5202 201.65 35.6208V29.2409H200.27V28.4371L201.65 28.4315ZM209.368 25.6659C209.38 25.8086 209.361 25.9522 209.313 26.0871C209.265 26.222 209.188 26.3451 209.087 26.4479C208.987 26.5508 208.866 26.631 208.732 26.6833C208.597 26.7355 208.453 26.7585 208.31 26.7508C208.167 26.7579 208.024 26.7343 207.891 26.6816C207.758 26.6289 207.638 26.5483 207.539 26.4454C207.44 26.3424 207.365 26.2194 207.318 26.0849C207.271 25.9504 207.254 25.8075 207.268 25.6659C207.258 25.5225 207.277 25.3785 207.325 25.2429C207.373 25.1073 207.449 24.9829 207.547 24.8776C207.646 24.7723 207.765 24.6883 207.898 24.6308C208.03 24.5734 208.173 24.5438 208.318 24.5438C208.463 24.5438 208.606 24.5734 208.739 24.6308C208.871 24.6883 208.99 24.7723 209.089 24.8776C209.187 24.9829 209.263 25.1073 209.311 25.2429C209.359 25.3785 209.378 25.5225 209.368 25.6659Z" fill="white"/>
<path d="M214.228 29.2408V34.6708C214.228 36.0255 214.794 36.4471 215.422 36.4471C215.812 36.4597 216.2 36.3807 216.554 36.2166L216.707 36.7169C216.055 37.1827 215.28 37.4485 214.477 37.4814C214.2 37.5034 213.922 37.4646 213.661 37.3678C213.401 37.271 213.165 37.1185 212.971 36.9211C212.777 36.7237 212.628 36.4863 212.537 36.2257C212.445 35.965 212.412 35.6875 212.44 35.4128V29.2408H211.15V28.437H212.531L213.663 26.1886H214.228V28.437H216.492V29.2408H214.228Z" fill="white"/>
<path d="M222.794 30.9778C222.658 29.8536 222.081 28.8755 220.814 28.8755C220.614 28.8524 220.412 28.8717 220.221 28.9322C220.029 28.9928 219.853 29.0931 219.704 29.2266C219.554 29.3601 219.435 29.5236 219.355 29.7064C219.274 29.8891 219.233 30.0869 219.235 30.2864C219.235 31.2252 220.367 31.7029 221.159 31.9728C223.083 32.6417 223.988 33.1982 223.988 34.7833C223.988 36.3685 222.76 37.4983 220.593 37.4983C219.581 37.5456 218.583 37.2482 217.764 36.6551L217.589 34.283H218.155C218.522 35.812 219.252 36.8294 220.712 36.8294C220.917 36.8503 221.124 36.8292 221.321 36.7673C221.517 36.7055 221.698 36.6042 221.854 36.4699C222.009 36.3355 222.135 36.1708 222.224 35.9861C222.313 35.8014 222.362 35.6006 222.37 35.396C222.37 34.4404 221.482 33.9963 220.367 33.5804C218.811 33.0183 217.73 32.4899 217.73 30.8654C217.73 29.2409 219.06 28.2291 221.023 28.2291C221.846 28.2194 222.659 28.4125 223.388 28.7912V31.0397L222.794 30.9778Z" fill="white"/>
<path d="M225.912 36.4246C225.86 35.9909 225.73 35.5701 225.528 35.1824C225.998 34.8215 226.569 34.6135 227.163 34.5865C227.478 34.9127 227.668 35.3384 227.7 35.7895C227.7 37.2847 226.569 38.7349 225.239 40.0502L224.792 39.7298C225.553 38.7975 225.95 37.6243 225.912 36.4246Z" fill="white"/>
<path d="M237.222 35.5028C237.222 36.4977 237.279 36.5371 238.835 36.627V37.2228H233.703V36.627C235.276 36.5146 235.316 36.4752 235.316 35.5028V26.509C235.316 25.5141 235.276 25.4804 233.703 25.3848V24.744H238.835V25.3567C237.279 25.4523 237.222 25.486 237.222 26.4809V35.5028Z" fill="white"/>
<path d="M248.821 35.5984C248.821 36.5203 248.894 36.554 250.145 36.6495V37.2454H245.703V36.6495C246.976 36.554 247.05 36.5371 247.05 35.6209V31.4557C247.05 29.9042 246.399 29.2353 245.183 29.2353C244.746 29.2374 244.318 29.3578 243.945 29.5836C243.572 29.8095 243.268 30.1322 243.067 30.5169C242.922 30.8196 242.863 31.1559 242.897 31.4894V35.6209C242.897 36.5371 242.993 36.554 244.221 36.6495V37.2454H239.779V36.6495C241.069 36.554 241.126 36.5203 241.126 35.5984V30.1178C241.126 29.4658 241.013 29.3534 240.56 29.2915L239.926 29.196V28.6788L242.637 28.2179L242.886 29.5557C244.017 28.8475 244.832 28.201 246.156 28.201C247.853 28.201 248.832 29.2522 248.832 31.0678L248.821 35.5984Z" fill="white"/>
<path d="M259.091 34.862C258.889 35.6287 258.431 36.3042 257.791 36.7773C257.151 37.2505 256.368 37.4929 255.571 37.4646C252.878 37.4646 251.379 35.9357 251.379 32.9115C251.379 30.4888 252.511 28.1954 255.803 28.1954C257.727 28.1954 258.961 29.1117 258.961 29.9492C258.961 30.6406 258.248 30.8711 257.863 30.8711C257.478 30.8711 257.399 30.7137 257.297 30.4101C256.929 29.4377 256.431 28.8643 255.6 28.8643C254.383 28.8643 253.337 29.9324 253.337 32.5911C253.337 34.3449 253.874 36.4865 255.968 36.4865C257.275 36.4865 257.97 35.857 258.525 34.5979L259.091 34.862Z" fill="white"/>
<path d="M260.669 36.2673C260.658 36.1104 260.679 35.953 260.731 35.8043C260.782 35.6555 260.863 35.5185 260.968 35.4012C261.074 35.2839 261.202 35.1887 261.345 35.1212C261.488 35.0537 261.643 35.0153 261.801 35.0082C261.964 35.006 262.125 35.0378 262.275 35.1015C262.425 35.1652 262.56 35.2594 262.671 35.3781C262.782 35.4967 262.866 35.6372 262.919 35.7903C262.972 35.9435 262.992 36.106 262.978 36.2673C262.978 36.5744 262.855 36.8689 262.636 37.0861C262.418 37.3032 262.121 37.4252 261.812 37.4252C261.503 37.4252 261.206 37.3032 260.988 37.0861C260.769 36.8689 260.646 36.5744 260.646 36.2673H260.669Z" fill="white"/>
</g>
<defs>
<clipPath id="clip0_330_171">
<rect width="263" height="71" fill="white"/>
</clipPath>
</defs>
</svg>
