<?xml version="1.0" encoding="UTF-8" standalone="no"?>
<svg
   xmlns:dc="http://purl.org/dc/elements/1.1/"
   xmlns:cc="http://creativecommons.org/ns#"
   xmlns:rdf="http://www.w3.org/1999/02/22-rdf-syntax-ns#"
   xmlns:svg="http://www.w3.org/2000/svg"
   xmlns="http://www.w3.org/2000/svg"
   viewBox="0 0 527.78668 168.41333"
   height="168.41333"
   width="527.78668"
   xml:space="preserve"
   id="svg2"
   version="1.1"><metadata
     id="metadata8"><rdf:RDF><cc:Work
         rdf:about=""><dc:format>image/svg+xml</dc:format><dc:type
           rdf:resource="http://purl.org/dc/dcmitype/StillImage" /></cc:Work></rdf:RDF></metadata><defs
     id="defs6" /><g
     transform="matrix(1.3333333,0,0,-1.3333333,0,168.41333)"
     id="g10"><g
       transform="scale(0.1)"
       id="g12"><path
         id="path14"
         style="fill:#4f5e22;fill-opacity:1;fill-rule:nonzero;stroke:none"
         d="m 104.816,758.082 c 20.719,30.168 70.09,126.359 126.883,208.695 C 151.633,894.434 66.6445,813.844 42.9023,777.391 -2.86328,707.012 -74.0352,544.313 210.117,481.621 -7.71484,551.102 61.2578,694.566 104.816,758.082" /><path
         id="path16"
         style="fill:#4f5e22;fill-opacity:1;fill-rule:nonzero;stroke:none"
         d="m 371.711,598.461 c 0,0 58.644,-67.121 56.031,-151.297 -2.594,-84.176 -31.347,-97.156 -73.387,-152.797 -42.058,-55.738 -141.246,-145.976 16.571,-294.3552812 0,0 -64.492,98.4570812 -35.66,168.5272812 28.804,70.141 106.125,111.41 122.519,169.441 16.403,57.997 34.922,122.895 -86.074,260.481" /><path
         id="path18"
         style="fill:#4f5e22;fill-opacity:1;fill-rule:nonzero;stroke:none"
         d="m 399.539,1125.95 c 0,0 108.184,-118.98 96.285,-274.86 C 483.969,695.227 427.336,668.703 341.398,561.949 255.527,455.23 58.5352,279.148 352.094,18.9492 c 0,0 -119.297,176.4098 -57.844,308.7618 61.52,132.238 214.57,215.422 250.926,324.156 36.426,108.778 77.629,230.531 -145.637,474.083" /><path
         id="path20"
         style="fill:#81641e;fill-opacity:1;fill-rule:nonzero;stroke:none"
         d="m 169.309,730.742 c -1.762,81.457 81.691,196.668 97.664,217.949 22.433,32.391 35.121,60.159 34.05,108.559 33.805,-35.57 95.954,-160.848 97.872,-250.004 0.269,-13.207 -0.079,-24.558 -0.864,-34.543 14.528,26.762 28.989,59.711 27.282,140.117 -2.743,124.89 -89.793,300.38 -137.165,350.25 1.493,-67.78 -16.207,-106.72 -47.617,-152.12 -22.515,-29.81 -139.394,-191.247 -136.972,-305.309 3.304,-154.211 79.05,-229.68 148.07,-279.141 1.133,6.227 2.769,12.672 4.719,19.211 -43.368,35.473 -85.012,88.734 -87.039,185.031" /><path
         id="path22"
         style="fill:#80292b;fill-opacity:1;fill-rule:evenodd;stroke:none"
         d="m 223.156,725.32 c 1.496,-69.996 35.832,-104.207 67.117,-126.656 3.711,20.375 17.247,45.184 32.215,64.395 6.793,9.214 25.188,30.625 31.242,41.949 7.415,13.422 16.219,26.926 15.34,68.926 -1.226,56.625 -40.718,136.211 -62.226,158.898 0.687,-30.769 -7.36,-48.441 -21.637,-69.035 -10.148,-13.57 -63.203,-86.754 -62.051,-138.477" /><path
         id="path24"
         style="fill:#4c6a27;fill-opacity:1;fill-rule:nonzero;stroke:none"
         d="m 821.98,631.441 c 0,-17.679 1.02,-18.359 28.555,-20.398 V 600.504 H 759.77 v 10.539 c 27.875,2.039 28.554,2.719 28.554,20.398 v 160.122 c 0,17.683 -0.679,18.363 -28.554,20.058 v 10.883 h 90.765 V 811.621 C 823,809.926 821.98,809.246 821.98,791.563 V 631.441" /><path
         id="path26"
         style="fill:#4c6a27;fill-opacity:1;fill-rule:nonzero;stroke:none"
         d="m 935.539,709.973 v -78.188 c 0,-18.023 1.024,-18.703 28.899,-20.742 v -10.539 h -91.45 v 10.539 c 27.875,2.039 28.555,2.719 28.555,20.742 v 159.778 c 0,17.683 -0.68,18.363 -28.555,20.058 v 10.883 h 91.45 v -10.883 c -27.875,-1.695 -28.899,-2.375 -28.899,-20.058 v -68.672 h 109.471 v 68.672 c 0,17.683 -0.68,18.363 -28.56,20.058 v 10.883 h 91.11 V 811.621 C 1080.02,809.926 1079,809.246 1079,791.563 V 631.785 c 0,-18.023 1.02,-18.703 28.56,-20.742 v -10.539 h -91.11 v 10.539 c 27.88,2.039 28.56,2.719 28.56,20.742 v 78.188 H 935.539" /><path
         id="path28"
         style="fill:#4c6a27;fill-opacity:1;fill-rule:nonzero;stroke:none"
         d="m 1327.55,664.422 -4.42,-55.078 c -15.64,-8.496 -45.22,-14.278 -70.71,-14.278 -76.84,0 -117.64,36.719 -117.64,114.907 0,36.039 10.55,64.254 29.24,84.652 19.04,21.758 50.66,33.656 90.43,33.656 28.22,0 53.38,-5.777 68.34,-12.918 v -51.675 h -11.22 c -6.12,37.398 -27.2,52.355 -60.18,52.355 -59.83,0 -78.53,-54.055 -78.53,-105.051 0,-38.418 12.58,-104.027 78.19,-104.027 41.48,0 56.44,23.797 65.62,57.457 h 10.88" /><path
         id="path30"
         style="fill:#4c6a27;fill-opacity:1;fill-rule:nonzero;stroke:none"
         d="m 1549.23,766.75 c -5.44,32.637 -20.74,49.293 -47.93,49.293 -26.52,0 -40.8,-17.676 -40.8,-40.797 0,-25.5 25.84,-37.734 46.24,-45.551 38.41,-14.621 66.63,-27.199 66.63,-69.015 0,-34 -22.1,-65.614 -79.55,-65.614 -22.44,0 -48.96,5.782 -63.24,19.036 l -3.39,52.019 h 10.87 c 8.5,-36.379 27.88,-59.156 57.46,-59.156 28.21,0 45.55,15.297 45.55,42.836 0,26.515 -26.85,40.457 -49.97,48.957 -32.98,11.894 -60.52,25.836 -60.52,65.609 0,43.516 33.66,63.914 73.44,63.914 21.75,0 44.19,-6.117 56.43,-13.597 V 766.75 h -11.22" /><path
         id="path32"
         style="fill:#4c6a27;fill-opacity:1;fill-rule:nonzero;stroke:none"
         d="m 1642.06,650.137 c 0,-7.137 0,-13.598 2.04,-19.375 5.1,-14.617 17.68,-22.442 34.34,-22.442 31.28,0 45.55,25.5 45.55,71.735 0,55.078 -27.54,62.894 -40.45,62.894 -17,0 -30.26,-7.816 -37.4,-22.097 -2.72,-5.778 -4.08,-10.2 -4.08,-18.02 z m -31.28,77.176 c 0,11.554 -2.04,13.261 -9.85,14.617 l -12.25,1.699 v 9.18 l 48.96,8.16 4.42,-23.121 c 12.58,7.824 30.94,23.461 54.06,23.461 56.43,0 62.21,-54.395 62.21,-78.871 0,-65.958 -37.06,-86.016 -80.57,-86.016 -14.28,0 -29.24,3.402 -35.7,6.801 V 553.93 c 0,-16.321 2.04,-16.657 28.56,-18.356 v -10.543 h -83.29 v 10.543 c 22.09,1.699 23.45,2.375 23.45,18.356 v 173.383" /><path
         id="path34"
         style="fill:#4c6a27;fill-opacity:1;fill-rule:nonzero;stroke:none"
         d="m 1883.79,696.715 c 8.84,0 10.88,4.078 10.88,10.199 0,12.578 -3.4,42.496 -32.64,42.496 -32.3,0 -37.39,-39.097 -37.39,-52.695 z m -59.49,-12.918 c -0.68,-33.317 7.48,-70.371 46.91,-70.371 24.82,0 36.38,14.957 45.56,33.312 l 10.2,-5.097 c -8.84,-25.496 -27.2,-45.219 -62.9,-45.219 -53.71,0 -74.11,30.937 -74.11,81.258 0,47.933 23.8,83.629 73.77,83.629 58.82,0 65.28,-45.555 65.28,-64.594 0,-10.535 -6.12,-12.918 -13.26,-12.918 h -91.45" /><path
         id="path36"
         style="fill:#4c6a27;fill-opacity:1;fill-rule:nonzero;stroke:none"
         d="m 2093.9,642.664 c -9.18,-34.68 -39.44,-46.242 -62.22,-46.242 -47.59,0 -74.11,27.199 -74.11,80.914 0,43.18 20.4,83.973 78.19,83.973 34,0 55.76,-16.317 55.76,-31.278 0,-12.234 -12.58,-16.316 -19.38,-16.316 -6.12,0 -8.16,2.719 -10.2,8.156 -6.46,17.34 -15.3,27.539 -29.92,27.539 -21.41,0 -40.11,-19.039 -40.11,-66.293 0,-31.277 9.52,-69.355 46.57,-69.355 23.12,0 35.36,11.218 45.22,33.656 l 10.2,-4.754" /><path
         id="path38"
         style="fill:#4c6a27;fill-opacity:1;fill-rule:nonzero;stroke:none"
         d="m 2168.37,806.184 c 0,-11.215 -7.82,-19.379 -19.72,-19.379 -11.9,0 -20.06,8.164 -20.06,19.379 0,11.898 8.16,20.738 20.4,20.738 11.9,0 19.71,-8.84 19.38,-20.738 z m -35.02,-78.871 c 0,11.554 -2.04,13.597 -9.86,14.617 l -12.24,1.699 v 9.18 l 50.99,8.16 2.39,-2.039 V 629.402 c 0,-15.976 1.02,-16.66 23.8,-18.359 v -10.539 h -78.88 v 10.539 c 22.78,1.699 23.8,2.383 23.8,18.359 v 97.911" /><path
         id="path40"
         style="fill:#4c6a27;fill-opacity:1;fill-rule:nonzero;stroke:none"
         d="m 2303.68,691.277 c -7.14,-4.422 -23.8,-10.539 -36.38,-15.3 -17.33,-6.801 -24.13,-14.618 -24.13,-29.579 0,-18.695 9.86,-32.296 29.23,-32.296 12.25,0 31.28,6.461 31.28,31.617 z m 29.92,-48.613 c 0,-20.059 5.1,-25.5 10.88,-26.859 3.06,-1.024 8.16,-1.024 12.58,0 l 1.36,-10.203 c -7.83,-5.098 -21.76,-9.18 -34,-9.18 -11.22,0 -17,6.125 -21.08,19.043 -10.2,-6.801 -27.53,-19.043 -47.26,-19.043 -30.59,0 -46.57,21.422 -46.57,45.219 0,15.3 7.14,31.957 29.92,39.097 25.16,7.817 56.1,15.977 64.25,24.473 v 10.879 c 0,25.164 -12.92,32.98 -28.21,32.98 -12.92,0 -24.14,-6.797 -31.28,-30.597 -1.7,-5.438 -4.08,-9.18 -10.88,-9.18 -6.8,0 -18.02,4.762 -18.02,15.301 0,17.679 26.17,36.715 62.89,36.715 48.62,0 55.42,-25.161 55.42,-43.856 v -74.789" /><path
         id="path42"
         style="fill:#4c6a27;fill-opacity:1;fill-rule:nonzero;stroke:none"
         d="m 2393.45,806.863 c 0,12.239 -1.71,13.942 -9.87,14.961 l -12.23,1.02 v 9.179 l 50.99,7.817 2.38,-1.699 V 629.402 c 0,-15.976 1.36,-16.66 23.79,-18.359 v -10.539 h -78.86 v 10.539 c 22.77,1.699 23.8,2.383 23.8,18.359 v 177.461" /><path
         id="path44"
         style="fill:#4c6a27;fill-opacity:1;fill-rule:nonzero;stroke:none"
         d="m 2516.17,742.949 v -96.551 c 0,-24.136 10.21,-31.617 21.08,-31.617 7.82,0 12.58,0.684 20.39,4.082 l 2.73,-8.836 c -10.88,-6.804 -23.46,-13.605 -39.43,-13.605 -11.57,0 -36.05,4.426 -36.05,36.719 v 109.808 h -22.77 v 14.278 h 24.14 l 20.06,40.121 h 9.85 v -40.121 h 40.46 v -14.278 h -40.46" /><path
         id="path46"
         style="fill:#4c6a27;fill-opacity:1;fill-rule:nonzero;stroke:none"
         d="m 2726.29,757.227 v -10.2 c -15.99,-1.355 -18.02,-3.738 -23.8,-16.996 -9.52,-22.093 -38.42,-100.972 -58.14,-157.402 -16.31,-47.258 -32.97,-51.34 -46.24,-51.34 -13.59,0 -22.43,8.504 -22.43,16.32 0,9.524 7.81,18.36 14.28,18.36 3.74,0 6.45,-1.36 9.85,-4.418 5.44,-5.442 8.51,-6.461 11.57,-6.461 10.53,0 19.71,26.176 22.44,41.137 0.67,5.441 -0.69,10.539 -2.39,15.976 -8.16,23.121 -36.03,90.094 -52.01,128.168 -5.78,13.938 -8.84,15.641 -24.14,16.656 v 10.2 h 74.8 v -10.2 l -13.61,-1.699 c -7.48,-0.68 -6.79,-4.074 -5.09,-9.855 12.57,-32.977 25.84,-66.297 40.11,-104.371 h 0.69 c 13.59,37.394 28.89,83.632 33.65,103.347 1.7,6.125 1.01,10.199 -4.43,10.543 l -16.65,2.035 v 10.2 h 61.54" /><path
         id="path48"
         style="fill:#4c6a27;fill-opacity:1;fill-rule:nonzero;stroke:none"
         d="m 2864.32,637.223 c 0,-20.059 3.4,-24.821 28.23,-24.821 27.54,0 54.05,12.239 54.05,50.317 0,35.695 -21.07,50.996 -60.85,50.996 h -21.43 z m 0,88.73 h 20.06 c 33.67,0 52.7,11.559 52.7,43.516 0,32.636 -23.8,41.476 -47.93,41.133 -23.46,0 -24.83,-2.039 -24.83,-15.633 z m 33.67,96.551 c 36.71,0 74.79,-7.484 74.79,-50.996 0,-27.535 -18.36,-43.52 -48.96,-49.637 v -0.68 c 31.28,-4.082 59.16,-15.98 59.16,-55.753 0,-20.399 -7.48,-35.36 -20.06,-45.895 -15.3,-12.922 -40.12,-19.039 -69.02,-19.039 h -92.12 v 10.539 c 27.87,2.039 28.55,2.719 28.55,20.398 v 160.122 c 0,17.683 -0.68,18.363 -28.55,20.058 v 10.883 h 96.21" /><path
         id="path50"
         style="fill:#4c6a27;fill-opacity:1;fill-rule:nonzero;stroke:none"
         d="m 3109.46,696.715 c 8.84,0 10.88,4.078 10.88,10.199 0,12.578 -3.4,42.496 -32.64,42.496 -32.29,0 -37.4,-39.097 -37.4,-52.695 z m -59.49,-12.918 c -0.68,-33.317 7.48,-70.371 46.91,-70.371 24.82,0 36.38,14.957 45.56,33.312 l 10.2,-5.097 c -8.84,-25.496 -27.2,-45.219 -62.9,-45.219 -53.72,0 -74.11,30.937 -74.11,81.258 0,47.933 23.79,83.629 73.77,83.629 58.81,0 65.28,-45.555 65.28,-64.594 0,-10.535 -6.13,-12.918 -13.27,-12.918 h -91.44" /><path
         id="path52"
         style="fill:#4c6a27;fill-opacity:1;fill-rule:nonzero;stroke:none"
         d="m 3335.21,629.742 c 0,-16.316 1.36,-17 23.46,-18.699 v -10.539 h -78.53 v 10.539 c 22.44,1.699 23.79,2.039 23.79,18.359 v 74.11 c 0,27.539 -11.55,39.437 -32.96,39.437 -17.01,0 -30.94,-10.199 -37.41,-22.777 -2.71,-4.762 -3.05,-9.52 -3.05,-17.34 v -73.43 c 0,-16.32 1.7,-16.66 23.45,-18.359 v -10.539 h -78.53 v 10.539 c 22.78,1.699 23.8,2.383 23.8,18.699 v 97.571 c 0,11.554 -2.04,13.597 -10.2,14.617 l -11.22,1.699 v 9.18 l 47.94,8.16 4.41,-23.797 c 19.72,12.574 34.34,24.137 57.8,24.137 29.58,0 47.25,-18.7 47.25,-50.996 v -80.571" /><path
         id="path54"
         style="fill:#4c6a27;fill-opacity:1;fill-rule:nonzero;stroke:none"
         d="m 3474.28,696.715 c 8.83,0 10.87,4.078 10.87,10.199 0,12.578 -3.39,42.496 -32.63,42.496 -32.3,0 -37.4,-39.097 -37.4,-52.695 z m -59.5,-12.918 c -0.68,-33.317 7.47,-70.371 46.92,-70.371 24.81,0 36.37,14.957 45.55,33.312 l 10.2,-5.097 c -8.84,-25.496 -27.2,-45.219 -62.89,-45.219 -53.72,0 -74.11,30.937 -74.11,81.258 0,47.933 23.79,83.629 73.77,83.629 58.81,0 65.27,-45.555 65.27,-64.594 0,-10.535 -6.12,-12.918 -13.26,-12.918 h -91.45" /><path
         id="path56"
         style="fill:#4c6a27;fill-opacity:1;fill-rule:nonzero;stroke:none"
         d="m 3700.36,806.523 c 0,-11.218 -6.8,-19.378 -18.7,-19.378 -11.9,0 -18.36,8.16 -18.36,19.378 0,11.903 6.46,20.399 18.7,20.399 11.9,0 18.36,-8.496 18.36,-20.399 z m -136.33,-49.296 v 14.621 c 0,35.355 13.61,67.992 53.72,67.992 25.83,0 33.31,-11.219 33.31,-20.059 0,-8.16 -8.49,-15.64 -15.97,-15.64 -4.76,0 -6.8,2.043 -8.5,5.785 -7.82,18.015 -13.6,18.355 -18.36,18.355 -4.76,0 -14.96,-3.058 -14.28,-32.976 0.34,-12.239 1.02,-25.5 1.36,-38.078 h 45.9 c 24.47,0 43.52,2.378 54.39,3.742 l 1.36,-1.699 V 629.402 c 0,-15.976 1.7,-16.66 23.8,-18.359 v -10.539 h -78.53 v 10.539 c 22.44,1.699 23.79,2.039 23.79,18.359 v 98.93 c 0,11.223 -2.04,14.617 -10.19,14.617 h -60.52 V 629.402 c 0,-16.32 1.7,-16.66 26.51,-18.359 v -10.539 h -81.59 v 10.539 c 22.79,1.699 23.8,2.383 23.8,18.359 v 113.547 h -24.47 v 14.278 h 24.47" /><path
         id="path58"
         style="fill:#4c6a27;fill-opacity:1;fill-rule:nonzero;stroke:none"
         d="m 3786.04,742.949 v -96.551 c 0,-24.136 10.21,-31.617 21.09,-31.617 7.81,0 12.58,0.684 20.39,4.082 l 2.72,-8.836 c -10.88,-6.804 -23.45,-13.605 -39.43,-13.605 -11.56,0 -36.04,4.426 -36.04,36.719 v 109.808 h -22.78 v 14.278 h 24.14 l 20.06,40.121 h 9.85 v -40.121 h 40.46 v -14.278 h -40.46" /><path
         id="path60"
         style="fill:#4c6a27;fill-opacity:1;fill-rule:nonzero;stroke:none"
         d="m 3937.68,712.012 c -2.38,19.718 -12.57,37.398 -35.02,37.398 -15.63,0 -27.88,-8.836 -27.88,-25.156 0,-16.66 20.4,-25.16 34.01,-29.578 33.99,-11.903 49.63,-21.758 49.63,-49.977 0,-27.535 -21.76,-48.277 -59.84,-48.277 -19.03,0 -38.07,4.426 -50.31,14.961 l -3.06,42.16 h 10.2 c 6.46,-27.199 19.37,-45.223 45.21,-45.223 15.98,0 29.24,9.524 29.24,25.5 0,16.996 -15.63,24.821 -35.35,32.301 -27.54,9.516 -46.58,19.375 -46.58,48.27 0,30.257 23.46,46.918 58.13,46.918 14.62,0 30.94,-3.403 41.82,-9.856 v -39.441 h -10.2" /></g></g></svg>