<?xml version="1.0" encoding="utf-8"?>
<!-- Generator: Adobe Illustrator 26.2.1, SVG Export Plug-In . SVG Version: 6.00 Build 0)  -->
<svg version="1.1" id="Layer_1" xmlns="http://www.w3.org/2000/svg" xmlns:xlink="http://www.w3.org/1999/xlink" x="0px" y="0px"
	 viewBox="0 0 399 128" style="enable-background:new 0 0 399 128;" xml:space="preserve">
<style type="text/css">
	.st0{fill:#FFFFFF;}
	.st1{fill-rule:evenodd;clip-rule:evenodd;fill:#FFFFFF;}
</style>
<g>
	<g>
		<g>
			<g>
				<g>
					<path class="st0" d="M12.1,51.3c2.1-3,7-12.6,12.7-20.9c-8,7.2-16.5,15.3-18.9,18.9C1.3,56.5-5.8,72.7,22.6,79
						C0.8,72,7.7,57.7,12.1,51.3z"/>
				</g>
			</g>
			<path class="st0" d="M38.8,67.3c0,0,5.9,6.7,5.6,15.1c-0.3,8.4-3.1,9.7-7.3,15.3c-4.2,5.6-14.1,14.6,1.7,29.4
				c0,0-6.4-9.8-3.6-16.9c2.9-7,10.6-11.1,12.3-16.9C49,87.6,50.8,81.1,38.8,67.3z"/>
			<path class="st0" d="M41.5,14.6c0,0,10.8,11.9,9.6,27.5C50,57.6,44.3,60.3,35.7,71s-28.3,28.3,1.1,54.3c0,0-11.9-17.6-5.8-30.9
				C37.2,81.2,52.5,72.8,56.1,62C59.7,51.1,63.9,38.9,41.5,14.6z"/>
			<g>
				<path class="st0" d="M18.5,54.1c-0.2-8.1,8.2-19.7,9.8-21.8c2.2-3.2,3.5-6,3.4-10.9c3.4,3.6,9.6,16.1,9.8,25
					c0,1.3,0,2.5-0.1,3.5c1.5-2.7,2.9-6,2.7-14c-0.3-12.5-9-30-13.7-35c0.1,6.8-1.6,10.7-4.8,15.2c-2.3,3-13.9,19.1-13.7,30.5
					c0.3,15.4,7.9,23,14.8,27.9c0.1-0.6,0.3-1.3,0.5-1.9C22.9,69,18.7,63.7,18.5,54.1z"/>
			</g>
			<g>
				<path class="st1" d="M23.9,54.6c0.1,7,3.6,10.4,6.7,12.7c0.4-2,1.7-4.5,3.2-6.4c0.7-0.9,2.5-3.1,3.1-4.2
					c0.7-1.3,1.6-2.7,1.5-6.9c-0.1-5.7-4.1-13.6-6.2-15.9c0.1,3.1-0.7,4.8-2.2,6.9C29.1,42.1,23.8,49.4,23.9,54.6z"/>
			</g>
		</g>
	</g>
	<g>
		<path class="st0" d="M83.8,64c0,1.8,0.1,1.8,2.9,2v1.1h-9.1V66c2.8-0.2,2.9-0.3,2.9-2V48c0-1.8-0.1-1.8-2.9-2v-1.1h9.1V46
			c-2.8,0.2-2.9,0.2-2.9,2V64z"/>
		<path class="st0" d="M95.1,56.2V64c0,1.8,0.1,1.9,2.9,2.1v1.1h-9.1V66c2.8-0.2,2.9-0.3,2.9-2.1V48c0-1.8-0.1-1.8-2.9-2v-1.1H98V46
			c-2.8,0.2-2.9,0.2-2.9,2v6.9H106V48c0-1.8-0.1-1.8-2.9-2v-1.1h9.1V46c-2.8,0.2-2.9,0.2-2.9,2v16c0,1.8,0.1,1.9,2.9,2.1v1.1h-9.1
			V66c2.8-0.2,2.9-0.3,2.9-2.1v-7.8L95.1,56.2L95.1,56.2z"/>
		<path class="st0" d="M134.3,60.7l-0.4,5.5c-1.6,0.8-4.5,1.4-7.1,1.4c-7.7,0-11.8-3.7-11.8-11.5c0-3.6,1.1-6.4,2.9-8.5
			c1.9-2.2,5.1-3.4,9-3.4c2.8,0,5.3,0.6,6.8,1.3v5.2h-1.1c-0.6-3.7-2.7-5.2-6-5.2c-6,0-7.9,5.4-7.9,10.5c0,3.8,1.3,10.4,7.8,10.4
			c4.1,0,5.6-2.4,6.6-5.7C133.1,60.7,134.3,60.7,134.3,60.7z"/>
		<path class="st0" d="M156.5,50.5c-0.5-3.3-2.1-4.9-4.8-4.9s-4.1,1.8-4.1,4.1c0,2.5,2.6,3.8,4.6,4.6c3.8,1.5,6.7,2.7,6.7,6.9
			c0,3.4-2.2,6.6-8,6.6c-2.2,0-4.9-0.6-6.3-1.9l-0.3-5.2h1.1c0.8,3.6,2.8,5.9,5.7,5.9c2.8,0,4.6-1.5,4.6-4.3c0-2.7-2.7-4-5-4.9
			c-3.3-1.2-6.1-2.6-6.1-6.6c0-4.4,3.4-6.4,7.3-6.4c2.2,0,4.4,0.6,5.6,1.4v4.8L156.5,50.5L156.5,50.5z"/>
		<path class="st0" d="M162.7,54.4c0-1.2-0.2-1.3-1-1.5l-1.2-0.2v-0.9l4.9-0.8l0.4,2.3c1.3-0.8,3.1-2.3,5.4-2.3
			c5.6,0,6.2,5.4,6.2,7.9c0,6.6-3.7,8.6-8.1,8.6c-1.4,0-2.9-0.3-3.6-0.7v4.9c0,1.6,0.2,1.7,2.9,1.8v1.1h-8.3v-1.1
			c2.2-0.2,2.3-0.2,2.3-1.8V54.4H162.7z M165.8,62.1c0,0.7,0,1.4,0.2,1.9c0.5,1.5,1.8,2.2,3.4,2.2c3.1,0,4.6-2.5,4.6-7.2
			c0-5.5-2.8-6.3-4-6.3c-1.7,0-3,0.8-3.7,2.2c-0.3,0.6-0.4,1-0.4,1.8v5.4H165.8z"/>
		<path class="st0" d="M184,58.8c-0.1,3.3,0.7,7,4.7,7c2.5,0,3.6-1.5,4.6-3.3l1,0.5c-0.9,2.5-2.7,4.5-6.3,4.5
			c-5.4,0-7.4-3.1-7.4-8.1c0-4.8,2.4-8.4,7.4-8.4c5.9,0,6.5,4.6,6.5,6.5c0,1.1-0.6,1.3-1.3,1.3H184z M190,57.5c0.9,0,1.1-0.4,1.1-1
			c0-1.3-0.3-4.2-3.3-4.2c-3.2,0-3.7,3.9-3.7,5.3L190,57.5L190,57.5z"/>
		<path class="st0" d="M211,62.9c-0.9,3.5-3.9,4.6-6.2,4.6c-4.8,0-7.4-2.7-7.4-8.1c0-4.3,2-8.4,7.8-8.4c3.4,0,5.6,1.6,5.6,3.1
			c0,1.2-1.3,1.6-1.9,1.6c-0.6,0-0.8-0.3-1-0.8c-0.6-1.7-1.5-2.8-3-2.8c-2.1,0-4,1.9-4,6.6c0,3.1,1,6.9,4.7,6.9
			c2.3,0,3.5-1.1,4.5-3.4L211,62.9z"/>
		<path class="st0" d="M214.9,54.4c0-1.2-0.2-1.4-1-1.5l-1.2-0.2v-0.9l5.1-0.8l0.2,0.2v13c0,1.6,0.1,1.7,2.4,1.8v1.1h-7.9V66
			c2.3-0.2,2.4-0.2,2.4-1.8V54.4z M218.4,46.5c0,1.1-0.8,1.9-2,1.9s-2-0.8-2-1.9c0-1.2,0.8-2.1,2-2.1
			C217.7,44.5,218.4,45.3,218.4,46.5z"/>
		<path class="st0" d="M234.9,62.9c0,2,0.5,2.5,1.1,2.7c0.3,0.1,0.8,0.1,1.3,0l0.1,1c-0.8,0.5-2.2,0.9-3.4,0.9
			c-1.1,0-1.7-0.6-2.1-1.9c-1,0.7-2.8,1.9-4.7,1.9c-3.1,0-4.7-2.1-4.7-4.5c0-1.5,0.7-3.2,3-3.9c2.5-0.8,5.6-1.6,6.4-2.4v-1.1
			c0-2.5-1.3-3.3-2.8-3.3c-1.3,0-2.4,0.7-3.1,3.1c-0.2,0.5-0.4,0.9-1.1,0.9s-1.8-0.5-1.8-1.5c0-1.8,2.6-3.7,6.3-3.7
			c4.9,0,5.5,2.5,5.5,4.4V62.9z M231.9,58c-0.7,0.4-2.4,1.1-3.6,1.5c-1.7,0.7-2.4,1.5-2.4,3c0,1.9,1,3.2,2.9,3.2
			c1.2,0,3.1-0.6,3.1-3.2V58z"/>
		<path class="st0" d="M240.9,46.5c0-1.2-0.2-1.4-1-1.5l-1.2-0.1V44l5.1-0.8l0.2,0.2v20.9c0,1.6,0.1,1.7,2.4,1.8v1.1h-7.9V66
			c2.3-0.2,2.4-0.2,2.4-1.8V46.5z"/>
		<path class="st0" d="M253.2,52.9v9.7c0,2.4,1,3.2,2.1,3.2c0.8,0,1.3-0.1,2-0.4l0.3,0.9c-1.1,0.7-2.3,1.4-3.9,1.4
			c-1.2,0-3.6-0.4-3.6-3.7V53h-2.3v-1.4h2.4l2-4h1v4h4V53h-4V52.9z"/>
		<path class="st0" d="M274.2,51.4v1c-1.6,0.1-1.8,0.4-2.4,1.7c-1,2.2-3.8,10.1-5.8,15.7c-1.6,4.7-3.3,5.1-4.6,5.1
			c-1.4,0-2.2-0.9-2.2-1.6c0-1,0.8-1.8,1.4-1.8c0.4,0,0.6,0.1,1,0.4c0.5,0.5,0.9,0.6,1.2,0.6c1.1,0,2-2.6,2.2-4.1
			c0.1-0.5-0.1-1.1-0.2-1.6c-0.8-2.3-3.6-9-5.2-12.8c-0.6-1.4-0.9-1.6-2.4-1.7v-1h7.5v1l-1.4,0.2c-0.7,0.1-0.7,0.4-0.5,1
			c1.3,3.3,2.6,6.6,4,10.4h0.1c1.4-3.7,2.9-8.4,3.4-10.3c0.2-0.6,0.1-1-0.4-1.1l-1.7-0.2v-1L274.2,51.4L274.2,51.4z"/>
		<path class="st0" d="M291.4,44.9c3.7,0,7.5,0.7,7.5,5.1c0,2.8-1.8,4.4-4.9,5l0,0c3.1,0.4,5.9,1.6,5.9,5.6c0,2-0.7,3.5-2,4.6
			c-1.5,1.3-4,1.9-6.9,1.9h-9.2V66c2.8-0.2,2.9-0.3,2.9-2V48c0-1.8-0.1-1.8-2.9-2v-1.1H291.4z M288,54.6h2c3.4,0,5.3-1.2,5.3-4.4
			c0-3.3-2.4-4.1-4.8-4.1c-2.3,0-2.5,0.2-2.5,1.6V54.6z M288,63.4c0,2,0.3,2.5,2.8,2.5c2.8,0,5.4-1.2,5.4-5c0-3.6-2.1-5.1-6.1-5.1
			H288V63.4z"/>
		<path class="st0" d="M306.6,58.8c-0.1,3.3,0.7,7,4.7,7c2.5,0,3.6-1.5,4.6-3.3l1,0.5c-0.9,2.5-2.7,4.5-6.3,4.5
			c-5.4,0-7.4-3.1-7.4-8.1c0-4.8,2.4-8.4,7.4-8.4c5.9,0,6.5,4.6,6.5,6.5c0,1.1-0.6,1.3-1.3,1.3H306.6z M312.5,57.5
			c0.9,0,1.1-0.4,1.1-1c0-1.3-0.3-4.2-3.3-4.2c-3.2,0-3.7,3.9-3.7,5.3L312.5,57.5L312.5,57.5z"/>
		<path class="st0" d="M335.1,64.2c0,1.6,0.1,1.7,2.3,1.9v1.1h-7.9V66c2.2-0.2,2.4-0.2,2.4-1.8v-7.4c0-2.8-1.2-3.9-3.3-3.9
			c-1.7,0-3.1,1-3.7,2.3c-0.3,0.5-0.3,1-0.3,1.7v7.3c0,1.6,0.2,1.7,2.3,1.8v1.1H319V66c2.3-0.2,2.4-0.2,2.4-1.9v-9.8
			c0-1.2-0.2-1.4-1-1.5l-1.1-0.2v-0.9l4.8-0.8l0.4,2.4c2-1.3,3.4-2.4,5.8-2.4c3,0,4.7,1.9,4.7,5.1v8.2H335.1z"/>
		<path class="st0" d="M343.1,58.8c-0.1,3.3,0.7,7,4.7,7c2.5,0,3.6-1.5,4.6-3.3l1,0.5c-0.9,2.5-2.7,4.5-6.3,4.5
			c-5.4,0-7.4-3.1-7.4-8.1c0-4.8,2.4-8.4,7.4-8.4c5.9,0,6.5,4.6,6.5,6.5c0,1.1-0.6,1.3-1.3,1.3H343.1z M349,57.5
			c0.9,0,1.1-0.4,1.1-1c0-1.3-0.3-4.2-3.3-4.2c-3.2,0-3.7,3.9-3.7,5.3L349,57.5L349,57.5z"/>
		<path class="st0" d="M358,51.4V50c0-3.5,1.4-6.8,5.4-6.8c2.6,0,3.3,1.1,3.3,2c0,0.8-0.8,1.6-1.6,1.6c-0.5,0-0.7-0.2-0.8-0.6
			c-0.8-1.8-1.4-1.8-1.8-1.8c-0.5,0-1.5,0.3-1.4,3.3c0,1.2,0.1,2.5,0.1,3.8h4.6c2.4,0,4.4-0.2,5.4-0.4l0.1,0.2v13
			c0,1.6,0.2,1.7,2.4,1.8v1.1h-7.9V66c2.2-0.2,2.4-0.2,2.4-1.8v-9.9c0-1.1-0.2-1.5-1-1.5h-6.1v11.4c0,1.6,0.2,1.7,2.7,1.8v1.1h-8.2
			V66c2.3-0.2,2.4-0.2,2.4-1.8V52.9h-2.4v-1.4L358,51.4L358,51.4z M371.6,46.5c0,1.1-0.7,1.9-1.9,1.9c-1.2,0-1.8-0.8-1.8-1.9
			c0-1.2,0.6-2,1.9-2C371,44.5,371.6,45.3,371.6,46.5z"/>
		<path class="st0" d="M380.2,52.9v9.7c0,2.4,1,3.2,2.1,3.2c0.8,0,1.3-0.1,2-0.4l0.3,0.9c-1.1,0.7-2.3,1.4-3.9,1.4
			c-1.2,0-3.6-0.4-3.6-3.7V53h-2.3v-1.4h2.4l2-4h1v4h4V53h-4V52.9z"/>
		<path class="st0" d="M395.3,56c-0.2-2-1.3-3.7-3.5-3.7c-1.6,0-2.8,0.9-2.8,2.5c0,1.7,2,2.5,3.4,3c3.4,1.2,5,2.2,5,5
			s-2.2,4.8-6,4.8c-1.9,0-3.8-0.4-5-1.5l-0.3-4.2h1c0.6,2.7,1.9,4.5,4.5,4.5c1.6,0,2.9-1,2.9-2.5c0-1.7-1.6-2.5-3.5-3.2
			c-2.8-1-4.7-1.9-4.7-4.8c0-3,2.3-4.7,5.8-4.7c1.5,0,3.1,0.3,4.2,1V56H395.3z"/>
	</g>
</g>
</svg>
