<svg width="30" height="20" viewBox="0 0 30 20" fill="none" xmlns="http://www.w3.org/2000/svg">
<path fill-rule="evenodd" clip-rule="evenodd" d="M28.405 0.360352H4.52834C3.84626 0.360352 3.29333 0.900799 3.29333 1.5675V1.96988H1.235C0.552919 1.96988 0 2.51032 0 3.17702V16.858C0 18.4136 1.29016 19.6746 2.88167 19.6746H27.17C28.5342 19.6746 29.64 18.5938 29.64 17.2603V1.5675C29.64 0.900799 29.0871 0.360352 28.405 0.360352ZM2.88167 17.2603C2.65431 17.2603 2.47 17.0802 2.47 16.858V4.38416H3.29333V16.858C3.29333 17.0802 3.10903 17.2603 2.88167 17.2603ZM7.20418 16.4556H15.0258C15.3669 16.4556 15.6433 16.1853 15.6433 15.852V15.4496C15.6433 15.1163 15.3669 14.8461 15.0258 14.8461H7.20418C6.86314 14.8461 6.58666 15.1163 6.58666 15.4496V15.852C6.58666 16.1853 6.86314 16.4556 7.20418 16.4556ZM25.7292 16.4556H17.9075C17.5665 16.4556 17.29 16.1853 17.29 15.852V15.4496C17.29 15.1163 17.5665 14.8461 17.9075 14.8461H25.7292C26.0702 14.8461 26.3467 15.1163 26.3467 15.4496V15.852C26.3467 16.1853 26.0702 16.4556 25.7292 16.4556ZM7.20418 11.627H15.0258C15.3669 11.627 15.6433 11.3568 15.6433 11.0235V10.6211C15.6433 10.2877 15.3669 10.0175 15.0258 10.0175H7.20418C6.86314 10.0175 6.58666 10.2877 6.58666 10.6211V11.0235C6.58666 11.3568 6.86314 11.627 7.20418 11.627ZM25.7292 11.627H17.9075C17.5665 11.627 17.29 11.3568 17.29 11.0235V10.6211C17.29 10.2877 17.5665 10.0175 17.9075 10.0175H25.7292C26.0702 10.0175 26.3467 10.2877 26.3467 10.6211V11.0235C26.3467 11.3568 26.0702 11.627 25.7292 11.627ZM7.20418 6.79844H25.7292C26.0702 6.79844 26.3467 6.52819 26.3467 6.19488V4.18296C26.3467 3.84964 26.0702 3.5794 25.7292 3.5794H7.20418C6.86314 3.5794 6.58666 3.84964 6.58666 4.18296V6.19488C6.58666 6.52819 6.86314 6.79844 7.20418 6.79844Z" fill="#163A5E"/>
</svg>
