<svg width="21" height="21" viewBox="0 0 21 21" fill="none" xmlns="http://www.w3.org/2000/svg">
<g clip-path="url(#clip0_124_6257)">
<path d="M19.7646 8.05111L18.879 7.16549C18.5121 6.79863 17.9173 6.79863 17.5505 7.16549L17.3291 7.38691L12.9009 2.95872L13.1223 2.7373C13.4891 2.37044 13.4891 1.77567 13.1223 1.40885L12.2367 0.523192C11.8698 0.156332 11.275 0.156332 10.9082 0.523192L6.03719 5.39421C5.67033 5.76107 5.67033 6.35584 6.03719 6.72266L6.92281 7.60828C7.28967 7.97514 7.88444 7.97514 8.25126 7.60828L8.47268 7.38687L10.0225 8.93673L6.85063 12.1086L6.62922 11.8872C6.14009 11.3981 5.34707 11.3981 4.85794 11.8872L0.36685 16.3784C-0.122283 16.8675 -0.122283 17.6605 0.36685 18.1497L2.13813 19.921C2.62727 20.4101 3.42028 20.4101 3.90942 19.921L8.40054 15.4298C8.88967 14.9407 8.88967 14.1477 8.40054 13.6585L8.17913 13.4371L11.351 10.2652L12.9009 11.8151L12.6795 12.0365C12.3126 12.4034 12.3126 12.9981 12.6795 13.365L13.5651 14.2506C13.932 14.6174 14.5267 14.6174 14.8936 14.2506L19.7646 9.37956C20.1314 9.01274 20.1314 8.41797 19.7646 8.05111V8.05111Z" fill="white"/>
</g>
<defs>
<clipPath id="clip0_124_6257">
<rect width="20.0397" height="20.0397" fill="white" transform="translate(0 0.249023)"/>
</clipPath>
</defs>
</svg>
