<svg width="47" height="47" viewBox="0 0 47 47" fill="none" xmlns="http://www.w3.org/2000/svg">
<path d="M5.25125 10.3568C4.62143 11.2291 4.05252 12.1484 3.55075 13.1082M8.65224 6.61148C12.6212 3.11853 17.829 1 23.5316 1C24.1037 1 24.6707 1.02132 25.2321 1.06321M39.2612 7.39924C43.4575 11.4915 46.0632 17.2072 46.0632 23.5316C46.0632 35.4034 36.8816 45.1307 25.2321 46M39.2612 7.39924V13.1082M39.2612 7.39924L44.7878 9.07737M2.18405 16.3045C1.41629 18.5731 1 21.0037 1 23.5316C1 35.4034 10.1816 45.1307 21.8311 46" stroke="#00527F" stroke-width="1.5" stroke-linecap="round" stroke-linejoin="round"/>
<path d="M23.5077 43C36.104 43 39.6023 34.482 39.6437 34.3924C39.6852 34.3028 39.7926 34.0374 40 33.5C32.5 34 30.1762 36 24.5032 38C20.1437 39.537 15.0032 40 9.00323 37.0347C11.0773 39.5605 15.3636 43 23.5077 43Z" fill="#DDDDDD"/>
<path d="M22.6816 35.0095V12.0527L24.0718 12.0527V35.0095H22.6816ZM23.5893 32.6463C22.425 32.6463 21.3985 32.4887 20.51 32.1736C19.6367 31.8585 18.8937 31.4234 18.2809 30.8682C17.6835 30.2981 17.2162 29.6379 16.8792 28.8877C16.5575 28.1374 16.366 27.3272 16.3047 26.457H18.2809C18.3269 27.1472 18.5337 27.8149 18.9014 28.46C19.2691 29.0902 19.8053 29.6079 20.51 30.013C21.23 30.4181 22.6318 30.7582 23.7042 30.7582C24.8685 30.7582 26.1477 30.3731 26.8064 29.878C27.4652 29.3678 27.7945 28.6776 27.7945 27.8074C27.7945 26.9371 27.5762 26.1219 26.9328 25.6567C26.3047 25.1916 25.037 24.949 24.0718 24.6339L22.3484 24.0713C21.4751 23.7862 20.6402 23.4561 19.8436 23.081C19.0469 22.6909 18.3958 22.1807 17.8903 21.5505C17.3847 20.9203 17.132 20.0951 17.132 19.0748C17.132 18.0845 17.3771 17.2443 17.8673 16.5541C18.3575 15.8639 19.0393 15.3387 19.9125 14.9786C20.7857 14.6035 21.7968 14.4159 22.9458 14.4159C24.3399 14.4159 25.4889 14.6635 26.3928 15.1586C27.2966 15.6388 27.9784 16.2765 28.438 17.0717C28.8976 17.8669 29.158 18.7447 29.2193 19.705H27.289C27.243 19.1498 27.0822 18.6247 26.8064 18.1295C26.546 17.6344 26.14 17.2293 25.5885 16.9142C25.037 16.5991 23.7578 16.304 22.8539 16.304C21.8734 16.304 20.9038 16.479 20.3063 16.9142C19.7242 17.3343 19.2806 18.0995 19.2806 18.8497C19.2806 19.69 19.8359 20.5302 20.51 20.9804C21.1994 21.4305 22.1569 21.9556 23.1067 22.2557L24.8072 22.6808C25.6804 22.9509 26.5919 23.141 27.3579 23.5311C28.1392 23.9212 28.6984 24.3713 29.1733 25.0165C29.6636 25.6467 29.9087 26.4945 29.9087 27.5598C29.9087 29.1803 29.3342 30.4331 28.1852 31.3184C27.0362 32.2036 25.5042 32.6463 23.5893 32.6463Z" fill="#00527F"/>
</svg>
