<svg width="20" height="20" viewBox="0 0 20 20" fill="none" xmlns="http://www.w3.org/2000/svg">
<circle cx="10" cy="10" r="10" fill="#A8C105"/>
<path d="M9.75776 11.3802C8.72663 10.5341 8.03813 9.49005 7.67617 8.89598L7.40617 8.38803C7.50057 8.28695 8.2205 7.51765 8.53249 7.10025C8.92455 6.57612 8.35611 6.10275 8.35611 6.10275C8.35611 6.10275 6.75666 4.50641 6.39214 4.18975C6.02762 3.87266 5.60801 4.04877 5.60801 4.04877C4.84188 4.54276 4.04765 4.97224 4 7.03774C3.99822 8.97157 5.46929 10.9661 7.06009 12.5103C8.65344 14.2541 10.8411 16.002 12.9561 16C15.0257 15.9529 15.456 15.1604 15.951 14.3959C15.951 14.3959 16.1276 13.9775 15.8102 13.6134C15.4925 13.2494 13.8926 11.653 13.8926 11.653C13.8926 11.653 13.4186 11.0856 12.8933 11.4772C12.5018 11.7692 11.7987 12.4188 11.6293 12.5763C11.6297 12.5769 10.4536 11.9512 9.75776 11.3802Z" fill="white"/>
</svg>
