<svg width="15" height="21" viewBox="0 0 15 21" fill="none" xmlns="http://www.w3.org/2000/svg">
<g clip-path="url(#clip0_124_6244)">
<path fill-rule="evenodd" clip-rule="evenodd" d="M0.160156 7.20485C0.160156 3.42494 3.19115 0.360352 6.92944 0.360352C10.6677 0.360352 13.6987 3.42494 13.6987 7.20485C13.6987 9.49874 13.0303 10.3294 12.1775 11.3891C11.5595 12.157 10.8447 13.0452 10.2173 14.6978C10.0807 15.0574 9.73766 15.2938 9.35666 15.2938H4.50219C4.12118 15.2938 3.7781 15.0575 3.64157 14.6978C3.01421 13.0452 2.29941 12.157 1.6814 11.389C0.828615 10.3294 0.160156 9.49874 0.160156 7.20485ZM6.92944 2.22703C9.64999 2.22703 11.8526 4.45361 11.8526 7.20485C11.8526 8.89274 11.4028 9.42827 10.713 10.2496C10.1695 10.8968 9.4769 11.7214 8.73791 13.4271H5.12097C4.38074 11.7186 3.68795 10.8957 3.14456 10.2503C2.45517 9.43146 2.00633 8.89831 2.00633 7.20485C2.00633 4.45403 4.20843 2.22703 6.92944 2.22703ZM6.92944 4.71595C5.57211 4.71595 4.46789 5.83244 4.46789 7.20485C4.46789 7.54848 4.19234 7.82708 3.8525 7.82708C3.51265 7.82708 3.2371 7.54848 3.2371 7.20485C3.2371 5.14625 4.89346 3.47149 6.92944 3.47149C7.26933 3.47149 7.54483 3.75009 7.54483 4.09372C7.54483 4.43734 7.26933 4.71595 6.92944 4.71595ZM10.0064 18.0938V17.0049C10.0064 16.7472 9.79974 16.5383 9.54485 16.5383H4.31403C4.05914 16.5383 3.8525 16.7472 3.8525 17.0049V18.0938C3.8525 18.5002 4.10943 18.8457 4.46789 18.9739V19.3383C4.46789 19.8538 4.88115 20.2716 5.39096 20.2716H8.46792C8.97772 20.2716 9.39099 19.8538 9.39099 19.3383V18.9739C9.74946 18.8457 10.0064 18.5002 10.0064 18.0938Z" fill="white"/>
</g>
<defs>
<clipPath id="clip0_124_6244">
<rect width="14.04" height="20.28" fill="white" transform="translate(0.160156 0.360352)"/>
</clipPath>
</defs>
</svg>
