<svg width="30" height="20" viewBox="0 0 30 20" fill="none" xmlns="http://www.w3.org/2000/svg">
<path fill-rule="evenodd" clip-rule="evenodd" d="M28.0684 0.249023H4.47468C3.80069 0.249023 3.25431 0.783067 3.25431 1.44186V1.83948H1.22037C0.546368 1.83948 0 2.37352 0 3.03231V16.5511C0 18.0883 1.27488 19.3345 2.84752 19.3345H26.8481C28.196 19.3345 29.2888 18.2664 29.2888 16.9488V1.44186C29.2888 0.783067 28.7424 0.249023 28.0684 0.249023ZM2.84752 16.9488C2.62286 16.9488 2.44073 16.7707 2.44073 16.5511V4.22516H3.25431V16.5511C3.25431 16.7707 3.07219 16.9488 2.84752 16.9488ZM7.11881 16.1536H14.8478C15.1848 16.1536 15.458 15.8865 15.458 15.5571V15.1595C15.458 14.8301 15.1848 14.5631 14.8478 14.5631H7.11881C6.78182 14.5631 6.50861 14.8301 6.50861 15.1595V15.5571C6.50861 15.8865 6.78182 16.1536 7.11881 16.1536ZM25.4243 16.1536H17.6953C17.3583 16.1536 17.0851 15.8865 17.0851 15.5571V15.1595C17.0851 14.8301 17.3583 14.5631 17.6953 14.5631H25.4243C25.7613 14.5631 26.0345 14.8301 26.0345 15.1595V15.5571C26.0345 15.8865 25.7613 16.1536 25.4243 16.1536ZM7.11881 11.3822H14.8478C15.1848 11.3822 15.458 11.1151 15.458 10.7858V10.3882C15.458 10.0588 15.1848 9.79173 14.8478 9.79173H7.11881C6.78182 9.79173 6.50861 10.0588 6.50861 10.3882V10.7858C6.50861 11.1151 6.78182 11.3822 7.11881 11.3822ZM25.4243 11.3822H17.6953C17.3583 11.3822 17.0851 11.1151 17.0851 10.7858V10.3882C17.0851 10.0588 17.3583 9.79173 17.6953 9.79173H25.4243C25.7613 9.79173 26.0345 10.0588 26.0345 10.3882V10.7858C26.0345 11.1151 25.7613 11.3822 25.4243 11.3822ZM7.11881 6.61082H25.4243C25.7613 6.61082 26.0345 6.34378 26.0345 6.01441V4.02633C26.0345 3.69697 25.7613 3.42992 25.4243 3.42992H7.11881C6.78182 3.42992 6.50861 3.69697 6.50861 4.02633V6.01441C6.50861 6.34378 6.78182 6.61082 7.11881 6.61082Z" fill="white"/>
</svg>
