<svg width="16" height="16" viewBox="0 0 16 16" fill="none" xmlns="http://www.w3.org/2000/svg">
<circle cx="8" cy="8" r="8" fill="#56718C"/>
<path d="M7.806 8.392C8.318 8.22 8.724 8.036 9.024 7.84C9.324 7.64 9.538 7.418 9.666 7.174C9.794 6.926 9.858 6.638 9.858 6.31C9.858 5.298 9.244 4.792 8.016 4.792C7.376 4.792 6.778 4.904 6.222 5.128V4.336C6.466 4.236 6.756 4.158 7.092 4.102C7.428 4.042 7.762 4.012 8.094 4.012C8.97 4.012 9.636 4.206 10.092 4.594C10.552 4.978 10.782 5.532 10.782 6.256C10.782 6.672 10.71 7.038 10.566 7.354C10.422 7.666 10.194 7.946 9.882 8.194C9.574 8.442 9.164 8.67 8.652 8.878L8.562 10.852H7.968L7.806 8.392ZM8.268 13.072C8.064 13.072 7.9 13.014 7.776 12.898C7.652 12.782 7.59 12.63 7.59 12.442C7.59 12.246 7.65 12.09 7.77 11.974C7.894 11.858 8.06 11.8 8.268 11.8C8.472 11.8 8.634 11.86 8.754 11.98C8.878 12.096 8.94 12.25 8.94 12.442C8.94 12.63 8.878 12.782 8.754 12.898C8.634 13.014 8.472 13.072 8.268 13.072Z" fill="white"/>
</svg>
