<svg width="20" height="20" viewBox="0 0 20 20" fill="none" xmlns="http://www.w3.org/2000/svg">
<circle cx="10" cy="10" r="10" fill="#0074C9"/>
<path d="M8.826 12.13C8.766 11.698 8.778 11.302 8.862 10.942C8.958 10.582 9.09 10.252 9.258 9.952C9.438 9.652 9.636 9.376 9.852 9.124C10.08 8.86 10.29 8.608 10.482 8.368C10.686 8.116 10.854 7.87 10.986 7.63C11.118 7.39 11.184 7.132 11.184 6.856C11.184 6.424 11.052 6.076 10.788 5.812C10.536 5.548 10.182 5.416 9.726 5.416C9.354 5.416 9.018 5.5 8.718 5.668C8.418 5.836 8.136 6.064 7.872 6.352L6.72 5.29C7.116 4.834 7.584 4.462 8.124 4.174C8.676 3.874 9.294 3.724 9.978 3.724C10.446 3.724 10.878 3.79 11.274 3.922C11.67 4.042 12.006 4.228 12.282 4.48C12.57 4.732 12.792 5.044 12.948 5.416C13.116 5.788 13.2 6.22 13.2 6.712C13.2 7.096 13.128 7.444 12.984 7.756C12.852 8.056 12.684 8.344 12.48 8.62C12.276 8.896 12.054 9.16 11.814 9.412C11.586 9.664 11.376 9.928 11.184 10.204C11.004 10.48 10.854 10.774 10.734 11.086C10.626 11.398 10.596 11.746 10.644 12.13H8.826ZM9.744 16.216C9.36 16.216 9.042 16.084 8.79 15.82C8.538 15.556 8.412 15.22 8.412 14.812C8.412 14.404 8.538 14.068 8.79 13.804C9.042 13.54 9.36 13.408 9.744 13.408C10.128 13.408 10.446 13.54 10.698 13.804C10.962 14.068 11.094 14.404 11.094 14.812C11.094 15.22 10.962 15.556 10.698 15.82C10.446 16.084 10.128 16.216 9.744 16.216Z" fill="white"/>
</svg>
