<?xml version="1.0" encoding="utf-8"?>
<!-- Generator: Adobe Illustrator 26.0.3, SVG Export Plug-In . SVG Version: 6.00 Build 0)  -->
<svg version="1.1" id="Layer_1" xmlns="http://www.w3.org/2000/svg" xmlns:xlink="http://www.w3.org/1999/xlink" x="0px" y="0px"
	 viewBox="0 0 20 20" style="enable-background:new 0 0 20 20;" xml:space="preserve">
<style type="text/css">
	.st0{fill:url(#SVGID_1_);}
	.st1{fill:#FFFFFF;}
</style>
<g>
	
		<linearGradient id="SVGID_1_" gradientUnits="userSpaceOnUse" x1="20" y1="384" x2="9.094947e-13" y2="384" gradientTransform="matrix(1 0 0 1 0 -374)">
		<stop  offset="0" style="stop-color:#E85A04"/>
		<stop  offset="1" style="stop-color:#F78030"/>
	</linearGradient>
	<circle class="st0" cx="10" cy="10" r="10"/>
	<g>
		<path class="st1" d="M14,15.2c-0.3,0-0.6-0.1-0.9-0.4L10,11.8l-3.1,3.1c-0.5,0.5-1.3,0.5-1.8,0s-0.5-1.3,0-1.8L8.2,10L5.1,6.9
			c-0.5-0.5-0.5-1.3,0-1.8s1.3-0.5,1.8,0L10,8.2l3.1-3.1c0.5-0.5,1.3-0.5,1.8,0s0.5,1.3,0,1.8L11.8,10l3.1,3.1
			c0.5,0.5,0.5,1.3,0,1.8C14.6,15.1,14.3,15.2,14,15.2z"/>
	</g>
</g>
</svg>
